<svg width="52" height="52" viewBox="0 0 52 52" fill="none" xmlns="http://www.w3.org/2000/svg">
<rect width="52" height="52" rx="26" fill="#EDF1FC"/>
<path d="M18.8018 34.91C17.9493 34.0489 17.2858 33.0642 16.8113 31.956C16.3368 30.8477 16.0996 29.702 16.0996 28.5188C16.0996 27.3279 16.3291 26.1409 16.7881 24.9577C17.247 23.7745 17.9833 22.6766 18.9968 21.664C19.8157 20.8433 20.8542 20.1932 22.1123 19.7135C23.3695 19.233 24.7366 18.8821 26.2134 18.6608C27.6902 18.4395 29.2204 18.3177 30.8039 18.2953C32.3875 18.2729 33.913 18.3108 35.3803 18.409C35.4862 19.8298 35.5276 21.3281 35.5043 22.904C35.4811 24.4815 35.3532 26.0109 35.1207 27.492C34.8882 28.9731 34.533 30.3474 34.0551 31.615C33.5771 32.8825 32.9343 33.9202 32.1266 34.7279C31.1346 35.7371 30.0642 36.4725 28.9155 36.934C27.7677 37.3947 26.6151 37.6251 25.4577 37.6251C24.2453 37.6251 23.0462 37.3879 21.8604 36.9134C20.6747 36.4389 19.6551 35.7711 18.8018 34.91ZM20.9782 35.0017C21.6525 35.4512 22.384 35.7853 23.1728 36.004C23.9616 36.2236 24.7254 36.3334 25.4642 36.3334C26.4657 36.3334 27.4559 36.1384 28.435 35.7483C29.4158 35.3582 30.3389 34.7137 31.2044 33.8147C31.5893 33.4272 31.9789 32.8834 32.3733 32.1833C32.7677 31.4832 33.1096 30.5687 33.3989 29.4398C33.6882 28.3109 33.9074 26.9439 34.0564 25.3388C34.2053 23.7336 34.2424 21.8228 34.1674 19.6063C33.1126 19.5633 31.9152 19.5555 30.5753 19.5831C29.2354 19.6106 27.8964 19.7252 26.5582 19.9267C25.2192 20.129 23.962 20.4373 22.7866 20.8515C21.6103 21.2648 20.6704 21.8237 19.9669 22.5281C19.0145 23.4796 18.3471 24.4665 17.9648 25.4886C17.5824 26.5107 17.3913 27.4631 17.3913 28.3458C17.3913 29.516 17.6251 30.6092 18.0927 31.6253C18.5602 32.6414 19.1264 33.4341 19.7912 34.0033C20.3311 32.48 21.1655 31.0182 22.2944 29.618C23.4242 28.2179 25.0044 26.9124 27.0349 25.7017C25.5503 26.9917 24.3026 28.3643 23.2916 29.8195C22.2807 31.2748 21.5095 33.0022 20.9782 35.0017Z" fill="#3762E9"/>
</svg>
