<svg width="52" height="52" viewBox="0 0 52 52" fill="none" xmlns="http://www.w3.org/2000/svg">
<rect width="52" height="52" rx="26" fill="#EDF1FC"/>
<g clip-path="url(#clip0_116_1810)">
<path d="M33.7955 22.3572C33.9076 22.2204 33.9912 22.0625 34.0413 21.8929C34.0914 21.7233 34.1069 21.5453 34.0871 21.3696C34.0672 21.1938 34.0123 21.0238 33.9256 20.8697C33.8389 20.7155 33.7222 20.5803 33.5824 20.472C33.298 20.2494 32.9379 20.1468 32.5789 20.1859C32.2198 20.225 31.8903 20.4027 31.6604 20.6812L25.2473 28.5475L21.8179 25.9125C21.5378 25.6845 21.1796 25.5749 20.8199 25.6071C20.4601 25.6393 20.1272 25.8108 19.892 26.0849C19.7771 26.2194 19.6903 26.3755 19.6368 26.544C19.5833 26.7126 19.5641 26.8902 19.5803 27.0663C19.5966 27.2424 19.648 27.4134 19.7314 27.5693C19.8149 27.7252 19.9288 27.8628 20.0664 27.974L24.5614 31.4808C24.8452 31.7117 25.2089 31.821 25.573 31.7847C25.9371 31.7484 26.272 31.5695 26.5047 31.2871L33.7897 22.3358L33.7955 22.3572Z" fill="#3762E9"/>
<path fill-rule="evenodd" clip-rule="evenodd" d="M23.546 11.8837C24.5807 11.1242 25.098 10.7444 25.6579 10.5972C26.1583 10.4702 26.6824 10.4702 27.1827 10.5972C27.7485 10.7444 28.2677 11.1242 29.2946 11.8837L30.6063 12.8466C30.9647 13.1101 31.1449 13.2419 31.3387 13.3445C31.5117 13.435 31.6919 13.5099 31.8792 13.5693C32.0904 13.6332 32.3093 13.6662 32.7492 13.734L34.3573 13.98C35.6263 14.1738 36.2599 14.2726 36.7598 14.569C37.2054 14.8306 37.5774 15.2026 37.839 15.6482C38.1354 16.152 38.2323 16.7875 38.428 18.0507L38.674 19.6589C38.7418 20.0987 38.7748 20.3195 38.8387 20.5307C38.8968 20.718 38.9718 20.8976 39.0635 21.0694C39.1681 21.2631 39.2979 21.4433 39.5614 21.8017L40.5243 23.1134C41.2838 24.148 41.6636 24.6654 41.8108 25.2253C41.9378 25.7256 41.9378 26.2498 41.8108 26.7501C41.6655 27.3159 41.2838 27.8351 40.5243 28.862L39.5614 30.1737C39.377 30.4048 39.2106 30.6496 39.0635 30.906C38.9716 31.0794 38.8963 31.261 38.8387 31.4485C38.7748 31.6578 38.7418 31.8767 38.674 32.3165L38.428 33.9247C38.2342 35.1937 38.1354 35.8273 37.839 36.3272C37.5774 36.7728 37.2054 37.1448 36.7598 37.4064C36.256 37.7028 35.6205 37.7997 34.3573 37.9954L32.7492 38.2414C32.4554 38.2748 32.1645 38.3305 31.8792 38.408C31.6919 38.4649 31.5117 38.5398 31.3387 38.6328C31.1449 38.7355 30.9647 38.8653 30.6063 39.1307L29.2946 40.0937C28.26 40.8532 27.7427 41.2329 27.1827 41.3802C26.6824 41.5071 26.1583 41.5071 25.6579 41.3802C25.0922 41.2329 24.5729 40.8532 23.546 40.0937L22.2343 39.1307C22.0032 38.9464 21.7584 38.7799 21.502 38.6328C21.3293 38.541 21.1483 38.4657 20.9614 38.408C20.6761 38.3305 20.3853 38.2748 20.0915 38.2414L18.4833 37.9954C17.2143 37.8016 16.5788 37.7047 16.0808 37.4064C15.6368 37.1422 15.2658 36.7712 15.0017 36.3272C14.7052 35.8234 14.6083 35.1879 14.4127 33.9247L14.1666 32.3165C14.0988 31.8767 14.0658 31.6578 14.0019 31.4466C13.9454 31.2593 13.8701 31.0782 13.7772 30.906C13.63 30.6496 13.4636 30.4048 13.2792 30.1737L12.3163 28.862C11.5568 27.8274 11.177 27.312 11.0298 26.7501C10.9028 26.2498 10.9028 25.7256 11.0298 25.2253C11.1751 24.6595 11.5568 24.1403 12.3163 23.1134L13.2792 21.8017C13.5427 21.4433 13.6745 21.2631 13.7772 21.0694C13.8676 20.8976 13.9425 20.7174 14.0019 20.5288C14.0658 20.3176 14.0988 20.0987 14.1666 19.6589L14.4127 18.0507C14.6064 16.7817 14.7052 16.1462 15.0017 15.6482C15.2632 15.2026 15.6352 14.8345 16.0808 14.569C16.5846 14.2726 17.2201 14.1757 18.4833 13.98L20.0915 13.734C20.5313 13.6681 20.7522 13.6332 20.9614 13.5693C21.1487 13.5112 21.3289 13.4363 21.502 13.3445C21.6957 13.2419 21.8759 13.1101 22.2343 12.8466L23.546 11.8837ZM28.1573 13.4453L29.5348 14.4567C29.8274 14.6717 30.1161 14.8849 30.4377 15.0554C30.7219 15.2065 31.0164 15.3285 31.3212 15.4215C31.6697 15.5179 32.0245 15.5898 32.383 15.6366L34.0725 15.8962C35.5082 16.1171 35.6864 16.1772 35.791 16.2392C35.9551 16.3373 36.0855 16.4678 36.1824 16.6305C36.2444 16.7352 36.3064 16.9134 36.5253 18.3491L36.785 20.0386C36.8318 20.3971 36.9037 20.7519 37 21.1004C37.0943 21.4078 37.2164 21.7023 37.3662 21.9839C37.5367 22.3055 37.7498 22.5942 37.9649 22.8867L38.9763 24.2643C39.8365 25.4345 39.9179 25.6031 39.9489 25.7232C39.9936 25.9052 39.9936 26.0953 39.9489 26.2774C39.9179 26.3955 39.8365 26.5641 38.9763 27.7363L37.9649 29.1139C37.7498 29.4064 37.5367 29.6951 37.3662 30.0167C37.2164 30.299 37.0938 30.5948 37 30.9002C36.9037 31.2487 36.8318 31.6035 36.785 31.962L36.5253 33.6515C36.3045 35.0872 36.2444 35.2654 36.1824 35.37C36.0854 35.5301 35.9511 35.6644 35.791 35.7614C35.6864 35.8234 35.5082 35.8854 34.0725 36.1044L32.383 36.364C32.0245 36.4108 31.6697 36.4827 31.3212 36.579C31.0158 36.6728 30.7199 36.7954 30.4377 36.9452C30.1161 37.1157 29.8274 37.3289 29.5348 37.5439L28.1573 38.5553C26.987 39.4155 26.8185 39.4969 26.6983 39.5279C26.5163 39.5726 26.3262 39.5726 26.1442 39.5279C26.026 39.4969 25.8575 39.4155 24.6853 38.5553L23.3077 37.5439C23.0211 37.3235 22.7194 37.1235 22.4048 36.9452C22.1226 36.7954 21.8268 36.6728 21.5213 36.579C21.1729 36.4827 20.8181 36.4108 20.4596 36.364L18.7701 36.1044C17.3344 35.8835 17.1562 35.8234 17.0515 35.7614C16.8915 35.6644 16.7572 35.5301 16.6602 35.37C16.5982 35.2654 16.5362 35.0872 16.3172 33.6515L16.0576 31.962C16.0108 31.6035 15.9389 31.2487 15.8425 30.9002C15.7488 30.5948 15.6262 30.299 15.4763 30.0167C15.3058 29.6951 15.0927 29.4064 14.8777 29.1139L13.8663 27.7363C13.006 26.566 12.9247 26.3975 12.8937 26.2774C12.849 26.0953 12.849 25.9052 12.8937 25.7232C12.9247 25.605 13.006 25.4365 13.8663 24.2643L14.8777 22.8867C15.0927 22.5942 15.3058 22.3055 15.4763 21.9839C15.6262 21.6997 15.7482 21.4052 15.8425 21.1004C15.9389 20.7519 16.0108 20.3971 16.0576 20.0386L16.3172 18.3491C16.5381 16.9134 16.5982 16.7352 16.6602 16.6305C16.7572 16.4705 16.8915 16.3362 17.0515 16.2392C17.1562 16.1772 17.3344 16.1152 18.7701 15.8962L20.4596 15.6366C20.8181 15.5898 21.1729 15.5179 21.5213 15.4215C21.8288 15.3273 22.1233 15.2052 22.4048 15.0554C22.7265 14.8849 23.0152 14.6717 23.3077 14.4567L24.6853 13.4453C25.8555 12.585 26.0241 12.5037 26.1442 12.4727C26.3262 12.428 26.5163 12.428 26.6983 12.4727C26.8165 12.5037 26.9851 12.585 28.1573 13.4453Z" fill="#3762E9"/>
</g>
<defs>
<clipPath id="clip0_116_1810">
<rect width="31" height="31" fill="white" transform="translate(10.9331 10.5)"/>
</clipPath>
</defs>
</svg>
