<svg width="52" height="52" viewBox="0 0 52 52" fill="none" xmlns="http://www.w3.org/2000/svg">
<rect width="52" height="52" rx="26" fill="#EDF1FC"/>
<path d="M26.4333 37.5761C23.8379 36.8054 21.6821 35.2334 19.9659 32.8602C18.2497 30.487 17.3916 27.8128 17.3916 24.8377V17.8523L26.4333 14.4746L35.4749 17.8523V24.8377C35.4749 27.8119 34.6168 30.4857 32.9006 32.8589C31.1844 35.2321 29.0287 36.8037 26.4333 37.5761ZM26.4333 36.2056C28.6722 35.4952 30.5235 34.0744 31.9874 31.9431C33.4513 29.8119 34.1833 27.4438 34.1833 24.8389V18.7345L26.4333 15.8541L18.6833 18.7345V24.8377C18.6833 27.4425 19.4152 29.8106 20.8791 31.9418C22.343 34.0731 24.1944 35.4952 26.4333 36.2056Z" fill="#3762E9"/>
</svg>
