<svg width="24" height="25" viewBox="0 0 24 25" fill="none" xmlns="http://www.w3.org/2000/svg">
<path d="M21 3.37891L13 11.8789M9.446 11.4639C6.966 12.4159 4.983 12.2529 3 11.4669C3.5 17.9099 6.504 20.3869 10.509 21.3789C10.509 21.3789 13.526 19.2449 13.961 14.1859C14.008 13.6379 14.031 13.3649 13.918 13.0559C13.804 12.7469 13.58 12.5259 13.133 12.0829C12.397 11.3549 12.03 10.9909 11.593 10.8989C11.156 10.8089 10.586 11.0269 9.446 11.4639Z" stroke="#3762E9" stroke-linecap="round" stroke-linejoin="round"/>
<path d="M4.5 16.8249C4.5 16.8249 7 17.3089 9.5 15.3789M11 4.37891V4.47891M8.5 7.62891C8.5 7.96043 8.3683 8.27837 8.13388 8.51279C7.89946 8.74721 7.58152 8.87891 7.25 8.87891C6.91848 8.87891 6.60054 8.74721 6.36612 8.51279C6.1317 8.27837 6 7.96043 6 7.62891C6 7.29739 6.1317 6.97944 6.36612 6.74502C6.60054 6.5106 6.91848 6.37891 7.25 6.37891C7.58152 6.37891 7.89946 6.5106 8.13388 6.74502C8.3683 6.97944 8.5 7.29739 8.5 7.62891Z" stroke="#3762E9" stroke-linecap="round" stroke-linejoin="round"/>
</svg>
