<svg width="24" height="25" viewBox="0 0 24 25" fill="none" xmlns="http://www.w3.org/2000/svg">
<path d="M9.866 8.49491L10.98 6.37891V5.60891H9.596V4.37891H14.442C14.6487 4.37891 14.8287 4.45557 14.982 4.60891C15.1353 4.76224 15.212 4.94224 15.212 5.14891V5.84091L14.327 7.60991H12.404V6.57091L10.558 8.49491H9.866ZM8.789 21.3789V15.5669C8.789 15.4602 8.80834 15.3382 8.847 15.2009C8.88634 15.0629 8.92833 14.9429 8.973 14.8409L12.403 8.37891H14.327C14.4703 8.52291 14.5833 8.68491 14.666 8.86491C14.748 9.04491 14.789 9.23557 14.789 9.43691V21.3789H8.789ZM9.789 20.3789H13.789V9.37891H13.008L9.788 15.4589L9.789 20.3789Z" fill="#3762E9"/>
</svg>
