<svg width="24" height="25" viewBox="0 0 24 25" fill="none" xmlns="http://www.w3.org/2000/svg">
<path d="M14 16.9615V13.879C12.3975 14.184 11.5155 14.194 10 13.879V16.9615C11.547 17.4115 12.4405 17.4615 14 16.9615ZM13.9425 4.66746C14.0031 4.69273 14.0581 4.7297 14.1045 4.77625C14.1508 4.82279 14.1875 4.87801 14.2125 4.93874C14.2374 4.99947 14.2502 5.06453 14.25 5.13019C14.2499 5.19586 14.2368 5.26085 14.2115 5.32146L12.9615 8.32146C12.9104 8.44385 12.8129 8.54096 12.6902 8.5914C12.5676 8.64185 12.4299 8.64151 12.3075 8.59046C12.1851 8.5394 12.088 8.44182 12.0376 8.31917C11.9871 8.19652 11.9874 8.05885 12.0385 7.93646L13.2885 4.93646C13.3138 4.87585 13.3507 4.82081 13.3973 4.77449C13.4438 4.72817 13.4991 4.69147 13.5598 4.66649C13.6205 4.64151 13.6856 4.62874 13.7512 4.62891C13.8169 4.62907 13.8819 4.64217 13.9425 4.66746Z" fill="#3762E9"/>
<path fill-rule="evenodd" clip-rule="evenodd" d="M16.707 2.92453C16.8237 2.97762 16.9156 3.07355 16.9637 3.19248C17.0117 3.31141 17.0122 3.44425 16.965 3.56353L15.046 8.40703C15.641 8.66953 16 9.00853 16 9.37953L15.999 9.41553H16V20.8795C16 21.708 14.209 22.3795 12 22.3795C9.79099 22.3795 7.99999 21.708 7.99999 20.8795V9.41553H8.00099L7.99999 9.37953C7.99999 8.98303 8.40999 8.62253 9.07999 8.35453L7.52199 3.27603C7.48839 3.16645 7.49344 3.04866 7.53632 2.94238C7.57919 2.83609 7.65727 2.74776 7.7575 2.69217C7.85772 2.63658 7.974 2.61711 8.08687 2.63701C8.19974 2.65692 8.30234 2.715 8.37749 2.80153L8.38349 2.80803C8.39016 2.81536 8.40199 2.82753 8.41899 2.84453C8.45349 2.87803 8.50799 2.92803 8.58149 2.98603C8.72949 3.10153 8.94949 3.24403 9.23349 3.34703C9.77749 3.54503 10.6145 3.62203 11.727 2.96053C12.763 2.23053 14.046 2.25553 14.9915 2.41803C15.566 2.5193 16.1276 2.68311 16.6665 2.90653L16.6945 2.91903L16.703 2.92253L16.7055 2.92353L16.707 2.92453ZM11.97 10.8795C10.844 10.8765 9.82849 10.699 9.10649 10.4155H8.99999V20.734C9.08599 20.803 9.25199 20.9025 9.52249 21.004C10.1075 21.2235 10.9835 21.3795 12 21.3795C13.0165 21.3795 13.892 21.2235 14.4775 21.004C14.748 20.9025 14.914 20.803 15 20.734V10.4145H14.893C14.171 10.6985 13.1555 10.876 12.0295 10.879L11.97 10.8795ZM14.821 3.40303C13.9585 3.25453 13.001 3.27803 12.29 3.78603L12.257 3.80803C10.877 4.63553 9.71999 4.58803 8.89099 4.28653L8.87599 4.28103L10.425 9.32953H13.6045L15.8485 3.66553C15.5131 3.55217 15.1696 3.46442 14.821 3.40303Z" fill="#3762E9"/>
</svg>
