<svg width="24" height="25" viewBox="0 0 24 25" fill="none" xmlns="http://www.w3.org/2000/svg">
<path d="M17.2778 9.77891L15.8369 17.7211C15.7782 18.0455 15.6033 18.3394 15.3431 18.5511C15.0829 18.7629 14.7539 18.8789 14.4142 18.8789H8.58583C8.24606 18.8789 7.91715 18.7629 7.65693 18.5511C7.39671 18.3394 7.22184 18.0455 7.16306 17.7211L5.72222 9.77891M18 7.67891H13.9375M13.9375 7.67891V6.27891C13.9375 5.9076 13.7853 5.55151 13.5144 5.28896C13.2435 5.02641 12.8761 4.87891 12.4931 4.87891H10.5069C10.1239 4.87891 9.75645 5.02641 9.48557 5.28896C9.21468 5.55151 9.0625 5.9076 9.0625 6.27891V7.67891M13.9375 7.67891H9.0625M5 7.67891H9.0625" stroke="#3762E9" stroke-width="1.5" stroke-linecap="round" stroke-linejoin="round"/>
</svg>
