<svg width="89" height="90" viewBox="0 0 89 90" fill="none" xmlns="http://www.w3.org/2000/svg">
<rect y="0.878906" width="89" height="89" rx="8" fill="#EDF1FC"/>
<path d="M48.6677 50.6462L50.8205 48.4926C51.1104 48.2062 51.4773 48.0101 51.8765 47.9281C52.2757 47.8462 52.6901 47.882 53.0693 48.0311L55.693 49.0791C56.0762 49.2347 56.4049 49.5004 56.6375 49.8426C56.8701 50.1848 56.9962 50.5882 57 51.002V55.8091C56.9978 56.0906 56.9386 56.3687 56.8261 56.6268C56.7136 56.8848 56.5501 57.1174 56.3454 57.3105C56.1406 57.5036 55.899 57.6533 55.6349 57.7505C55.3708 57.8477 55.0898 57.8905 54.8088 57.8762C36.424 56.7321 32.7144 41.1569 32.0128 35.196C31.9802 34.9033 32.01 34.607 32.1001 34.3266C32.1902 34.0462 32.3387 33.7881 32.5357 33.5692C32.7327 33.3503 32.9738 33.1756 33.2431 33.0567C33.5124 32.9377 33.8039 32.8771 34.0983 32.8789H38.7401C39.1543 32.8802 39.5587 33.0053 39.9013 33.2384C40.2438 33.4714 40.5088 33.8016 40.6622 34.1865L41.7098 36.8112C41.8638 37.1891 41.9031 37.604 41.8227 38.0042C41.7424 38.4043 41.546 38.7719 41.2581 39.061L39.1053 41.2146C39.1053 41.2146 40.3451 49.6079 48.6677 50.6462Z" fill="#3762E9"/>
</svg>
