<svg width="90" height="92" viewBox="0 0 90 92" fill="none" xmlns="http://www.w3.org/2000/svg">
<rect y="0.878906" width="90" height="90.2532" rx="8" fill="#EDF1FC"/>
<path d="M53.25 35.8789H35.75C34.7554 35.8789 33.8016 36.279 33.0983 36.9912C32.3951 37.7033 32 38.6692 32 39.6764V52.3346C32 53.3418 32.3951 54.3077 33.0983 55.0198C33.8016 55.732 34.7554 56.1321 35.75 56.1321H53.25C54.2446 56.1321 55.1984 55.732 55.9017 55.0198C56.6049 54.3077 57 53.3418 57 52.3346V39.6764C57 38.6692 56.6049 37.7033 55.9017 36.9912C55.1984 36.279 54.2446 35.8789 53.25 35.8789ZM53.25 38.4106L45.125 44.0688C44.935 44.1799 44.7194 44.2384 44.5 44.2384C44.2806 44.2384 44.065 44.1799 43.875 44.0688L35.75 38.4106H53.25Z" fill="#3762E9"/>
</svg>
