<svg width="89" height="91" viewBox="0 0 89 91" fill="none" xmlns="http://www.w3.org/2000/svg">
<rect y="0.132812" width="89" height="89.9231" rx="8" fill="#EDF1FC"/>
<path d="M44.5 29.1328C41.186 29.1367 38.0088 30.4593 35.6655 32.8104C33.3221 35.1615 32.0039 38.3491 32 41.674C31.996 44.3912 32.8807 47.0346 34.5182 49.1987C34.5182 49.1987 34.8591 49.6491 34.9148 49.7141L44.5 61.0559L54.0898 49.7084C54.1398 49.648 54.4818 49.1987 54.4818 49.1987L54.4829 49.1953C56.1197 47.0321 57.0039 44.3899 57 41.674C56.9961 38.3491 55.6779 35.1615 53.3345 32.8104C50.9912 30.4593 47.814 29.1367 44.5 29.1328ZM44.5 46.2345C43.601 46.2345 42.7222 45.967 41.9747 45.4659C41.2272 44.9648 40.6446 44.2525 40.3006 43.4192C39.9565 42.5859 39.8665 41.669 40.0419 40.7843C40.2173 39.8997 40.6502 39.0871 41.2859 38.4493C41.9216 37.8115 42.7315 37.3772 43.6132 37.2012C44.495 37.0252 45.4089 37.1156 46.2395 37.4607C47.07 37.8059 47.7799 38.3904 48.2794 39.1404C48.7789 39.8903 49.0455 40.7721 49.0455 41.674C49.0439 42.8831 48.5646 44.0422 47.7125 44.8971C46.8603 45.752 45.7051 46.233 44.5 46.2345Z" fill="#3762E9"/>
</svg>
