<svg width="23" height="23" viewBox="0 0 23 23" fill="none" xmlns="http://www.w3.org/2000/svg">
<g clip-path="url(#clip0_116_2464)">
<path d="M22.3451 11.4993C22.3451 5.59713 17.343 0.8125 11.1725 0.8125C5.00211 0.8125 0 5.59713 0 11.4993C0 16.8333 4.08561 21.2545 9.42682 22.0562V14.5884H6.59005V11.4993H9.42682V9.14484C9.42682 6.46647 11.0948 4.98702 13.6469 4.98702C14.8689 4.98702 16.1478 5.19575 16.1478 5.19575V7.82569H14.739C13.3512 7.82569 12.9182 8.64954 12.9182 9.4955V11.4993H16.0169L15.5215 14.5884H12.9182V22.0562C18.2595 21.2545 22.3451 16.8333 22.3451 11.4993Z" fill="#3762E9"/>
</g>
<defs>
<clipPath id="clip0_116_2464">
<rect width="22.3451" height="21.3735" fill="white" transform="translate(0 0.8125)"/>
</clipPath>
</defs>
</svg>
