<svg width="23" height="23" viewBox="0 0 23 23" fill="none" xmlns="http://www.w3.org/2000/svg">
<g clip-path="url(#clip0_116_2463)">
<path d="M7.4348 20.1811C15.8648 20.1811 20.477 13.4989 20.477 7.70596C20.477 7.51811 20.4726 7.32608 20.4639 7.13823C21.3611 6.51759 22.1354 5.74885 22.7503 4.86812C21.9147 5.22373 21.0276 5.45597 20.1191 5.55692C21.0757 5.00848 21.7919 4.14692 22.135 3.13194C21.2351 3.64205 20.251 4.00188 19.2249 4.19602C18.5335 3.49332 17.6193 3.02805 16.6238 2.87215C15.6282 2.71624 14.6067 2.87838 13.7171 3.3335C12.8275 3.78862 12.1195 4.51137 11.7024 5.39C11.2854 6.26864 11.1825 7.25423 11.4098 8.19438C9.58769 8.10692 7.80516 7.65417 6.17773 6.86548C4.55031 6.07679 3.11433 4.96977 1.96288 3.61618C1.37766 4.58131 1.19858 5.72337 1.46204 6.81026C1.7255 7.89714 2.41173 8.8473 3.38127 9.46761C2.6534 9.4455 1.94147 9.25805 1.30431 8.92075V8.97501C1.30366 9.98784 1.66972 10.9696 2.34027 11.7535C3.01082 12.5374 3.94447 13.0749 4.98252 13.2748C4.30826 13.4512 3.6006 13.4769 2.91429 13.3499C3.20721 14.221 3.77712 14.9828 4.54448 15.5291C5.31185 16.0754 6.23838 16.3789 7.19477 16.3973C5.5711 17.6173 3.5654 18.279 1.50071 18.2758C1.13455 18.2753 0.768752 18.2538 0.405273 18.2116C2.50278 19.4987 4.94275 20.1823 7.4348 20.1811Z" fill="#3762E9"/>
</g>
<defs>
<clipPath id="clip0_116_2463">
<rect width="22.3451" height="21.3735" fill="white" transform="translate(0.405273 0.8125)"/>
</clipPath>
</defs>
</svg>
