<svg width="23" height="23" viewBox="0 0 23 23" fill="none" xmlns="http://www.w3.org/2000/svg">
<g clip-path="url(#clip0_116_2462)">
<path d="M11.4973 2.73695C14.3527 2.73695 14.6908 2.74948 15.8138 2.79957C16.8574 2.84549 17.421 3.02082 17.7967 3.16693C18.2934 3.35896 18.6524 3.59273 19.024 3.96426C19.3997 4.33997 19.6293 4.6948 19.8213 5.19157C19.9674 5.56728 20.1427 6.13501 20.1887 7.17447C20.2388 8.30159 20.2513 8.63973 20.2513 11.4909C20.2513 14.3463 20.2388 14.6844 20.1887 15.8074C20.1427 16.851 19.9674 17.4146 19.8213 17.7903C19.6293 18.287 19.3955 18.6461 19.024 19.0176C18.6483 19.3933 18.2934 19.6229 17.7967 19.8149C17.421 19.961 16.8532 20.1364 15.8138 20.1823C14.6867 20.2324 14.3485 20.2449 11.4973 20.2449C8.64195 20.2449 8.30381 20.2324 7.18086 20.1823C6.13723 20.1364 5.57367 19.961 5.19797 19.8149C4.7012 19.6229 4.34219 19.3891 3.97066 19.0176C3.59495 18.6419 3.36535 18.287 3.17332 17.7903C3.02722 17.4146 2.85189 16.8468 2.80597 15.8074C2.75587 14.6803 2.74335 14.3421 2.74335 11.4909C2.74335 8.63555 2.75587 8.29741 2.80597 7.17447C2.85189 6.13084 3.02722 5.56728 3.17332 5.19157C3.36535 4.6948 3.59913 4.33579 3.97066 3.96426C4.34636 3.58856 4.7012 3.35896 5.19797 3.16693C5.57367 3.02082 6.14141 2.84549 7.18086 2.79957C8.30381 2.74948 8.64195 2.73695 11.4973 2.73695ZM11.4973 0.8125C8.59603 0.8125 8.23284 0.825024 7.0932 0.875118C5.95773 0.925212 5.17709 1.10889 4.50082 1.37189C3.79533 1.6474 3.19837 2.01059 2.60559 2.60754C2.00863 3.20033 1.64545 3.79728 1.36993 4.4986C1.10694 5.17905 0.923259 5.95551 0.873165 7.09098C0.82307 8.2348 0.810547 8.59798 0.810547 11.4993C0.810547 14.4006 0.82307 14.7637 0.873165 15.9034C0.923259 17.0389 1.10694 17.8195 1.36993 18.4958C1.64545 19.2013 2.00863 19.7982 2.60559 20.391C3.19837 20.9838 3.79533 21.3511 4.49665 21.6225C5.17709 21.8855 5.95355 22.0692 7.08902 22.1192C8.22867 22.1693 8.59185 22.1819 11.4931 22.1819C14.3944 22.1819 14.7576 22.1693 15.8973 22.1192C17.0327 22.0692 17.8134 21.8855 18.4896 21.6225C19.191 21.3511 19.7879 20.9838 20.3807 20.391C20.9735 19.7982 21.3408 19.2013 21.6122 18.4999C21.8752 17.8195 22.0589 17.043 22.1089 15.9076C22.159 14.7679 22.1716 14.4047 22.1716 11.5034C22.1716 8.60215 22.159 8.23897 22.1089 7.09933C22.0589 5.96386 21.8752 5.18322 21.6122 4.50695C21.3492 3.79728 20.986 3.20033 20.389 2.60754C19.7963 2.01476 19.1993 1.6474 18.498 1.37606C17.8175 1.11307 17.0411 0.929387 15.9056 0.879292C14.7618 0.825024 14.3986 0.8125 11.4973 0.8125Z" fill="#3762E9"/>
<path d="M11.4973 6.00977C8.4666 6.00977 6.00781 8.46856 6.00781 11.4993C6.00781 14.53 8.4666 16.9888 11.4973 16.9888C14.528 16.9888 16.9868 14.53 16.9868 11.4993C16.9868 8.46856 14.528 6.00977 11.4973 6.00977ZM11.4973 15.0601C9.53111 15.0601 7.93644 13.4655 7.93644 11.4993C7.93644 9.53306 9.53111 7.93839 11.4973 7.93839C13.4635 7.93839 15.0582 9.53306 15.0582 11.4993C15.0582 13.4655 13.4635 15.0601 11.4973 15.0601Z" fill="#3762E9"/>
<path d="M18.486 5.7933C18.486 6.50297 17.9099 7.07488 17.2044 7.07488C16.4948 7.07488 15.9229 6.49879 15.9229 5.7933C15.9229 5.08363 16.4989 4.51172 17.2044 4.51172C17.9099 4.51172 18.486 5.0878 18.486 5.7933Z" fill="#3762E9"/>
</g>
<defs>
<clipPath id="clip0_116_2462">
<rect width="21.3735" height="21.3735" fill="white" transform="translate(0.810547 0.8125)"/>
</clipPath>
</defs>
</svg>
