<svg width="23" height="23" viewBox="0 0 23 23" fill="none" xmlns="http://www.w3.org/2000/svg">
<g clip-path="url(#clip0_116_2461)">
<path fill-rule="evenodd" clip-rule="evenodd" d="M16.0092 6.64451C14.8556 5.59213 13.3162 5.01882 11.7233 5.04238C8.80856 5.04238 6.33308 6.9233 5.45044 9.45606C4.98244 10.7833 4.98244 12.2206 5.45044 13.5478H5.45453C6.34127 16.0767 8.81266 17.9576 11.7274 17.9576C13.232 17.9576 14.5237 17.5895 15.5248 16.9393V16.9367C16.703 16.1906 17.5077 15.0165 17.7581 13.6892H11.7233V9.57394H22.2616C22.393 10.2886 22.4545 11.019 22.4545 11.7455C22.4545 14.9959 21.2401 17.744 19.127 19.6052L19.1292 19.6069C17.2778 21.2404 14.7366 22.1868 11.7233 22.1868C7.49897 22.1868 3.63589 19.9092 1.73925 16.3005C0.154621 13.2808 0.154625 9.72313 1.73926 6.70344C3.6359 3.09079 7.49896 0.81322 11.7233 0.81322C14.4985 0.781806 17.1792 1.77921 19.199 3.59339L16.0092 6.64451Z" fill="#3762E9"/>
</g>
<defs>
<clipPath id="clip0_116_2461">
<rect width="22.3451" height="21.3735" fill="white" transform="translate(0.327148 0.8125)"/>
</clipPath>
</defs>
</svg>
