<svg width="38" height="38" viewBox="0 0 38 38" fill="none" xmlns="http://www.w3.org/2000/svg">
<circle cx="19" cy="19" r="19" fill="#3762E9"/>
<path d="M16.2619 25.5C15.2175 25.5 14.3295 25.1341 13.5977 24.4023C12.8659 23.6705 12.5 22.7822 12.5 21.7373C12.5 21.2959 12.575 20.8679 12.7251 20.4536C12.8751 20.0392 13.0918 19.6614 13.3751 19.3201L16.2286 15.8938L14.5386 12.5H23.4614L21.7714 15.8938L24.6249 19.3201C24.9082 19.6608 25.1249 20.0384 25.2749 20.4528C25.425 20.8677 25.5 21.2959 25.5 21.7373C25.5 22.7822 25.1333 23.6705 24.3999 24.4023C23.6665 25.1341 22.7792 25.5 21.7381 25.5H16.2619ZM19 21.8275C18.6365 21.8275 18.327 21.6999 18.0713 21.4448C17.8156 21.1891 17.6878 20.8796 17.6878 20.5161C17.6878 20.1521 17.8156 19.8423 18.0713 19.5866C18.327 19.331 18.6365 19.2031 19 19.2031C19.3635 19.2031 19.673 19.331 19.9287 19.5866C20.1844 19.8423 20.3122 20.1521 20.3122 20.5161C20.3122 20.8801 20.1844 21.1897 19.9287 21.4448C19.673 21.6999 19.3635 21.8275 19 21.8275ZM16.9769 15.5469H21.0394L22.1484 13.3125H15.8516L16.9769 15.5469ZM16.2619 24.6875H21.7381C22.5615 24.6875 23.2589 24.3993 23.8303 23.823C24.4018 23.2467 24.6875 22.5514 24.6875 21.7373C24.6875 21.3917 24.6298 21.0559 24.5144 20.7298C24.3991 20.4037 24.2298 20.1091 24.0066 19.8458L21.0979 16.3594H16.9216L14.0096 19.8409C13.7854 20.1053 13.6131 20.401 13.4929 20.7282C13.3726 21.0554 13.3125 21.3917 13.3125 21.7373C13.3125 22.5509 13.6009 23.2461 14.1778 23.823C14.7541 24.3993 15.4488 24.6875 16.2619 24.6875Z" fill="white"/>
</svg>
