<svg width="38" height="38" viewBox="0 0 38 38" fill="none" xmlns="http://www.w3.org/2000/svg">
<circle cx="19" cy="19" r="19" fill="#3762E9"/>
<path fill-rule="evenodd" clip-rule="evenodd" d="M24.25 26.1244H14.5C13.8038 26.1244 13.1361 25.8479 12.6438 25.3556C12.1516 24.8633 11.875 24.1956 11.875 23.4994V13.7067C11.875 12.9064 12.667 12.3987 13.3638 12.6402C13.4638 12.6747 13.5605 12.7252 13.654 12.7917L13.7852 12.8854C14.1045 13.1119 14.4864 13.2333 14.8778 13.2326C15.2693 13.232 15.6508 13.1093 15.9693 12.8817C16.4163 12.5635 16.9513 12.3926 17.5 12.3926C18.0487 12.3926 18.5837 12.5635 19.0308 12.8817C19.3492 13.1093 19.7307 13.232 20.1222 13.2326C20.5136 13.2333 20.8955 13.1119 21.2148 12.8854L21.346 12.7917C22.0908 12.2592 23.125 12.7917 23.125 13.7067V19.3744H25.75C25.8992 19.3744 26.0423 19.4337 26.1477 19.5392C26.2532 19.6447 26.3125 19.7877 26.3125 19.9369V24.0619C26.3125 24.6089 26.0952 25.1335 25.7084 25.5203C25.3216 25.9071 24.797 26.1244 24.25 26.1244ZM23.3125 20.4994V24.0619C23.3125 24.3106 23.4113 24.549 23.5871 24.7248C23.7629 24.9006 24.0014 24.9994 24.25 24.9994C24.4986 24.9994 24.7371 24.9006 24.9129 24.7248C25.0887 24.549 25.1875 24.3106 25.1875 24.0619V20.4994H23.3125ZM20.125 17.3119C20.125 17.1627 20.0657 17.0197 19.9602 16.9142C19.8548 16.8087 19.7117 16.7494 19.5625 16.7494H15.0625C14.9133 16.7494 14.7702 16.8087 14.6648 16.9142C14.5593 17.0197 14.5 17.1627 14.5 17.3119C14.5 17.4611 14.5593 17.6042 14.6648 17.7097C14.7702 17.8152 14.9133 17.8744 15.0625 17.8744H19.5625C19.7117 17.8744 19.8548 17.8152 19.9602 17.7097C20.0657 17.6042 20.125 17.4611 20.125 17.3119ZM19.375 19.5619C19.375 19.4127 19.3157 19.2697 19.2102 19.1642C19.1048 19.0587 18.9617 18.9994 18.8125 18.9994H15.0625C14.9133 18.9994 14.7702 19.0587 14.6648 19.1642C14.5593 19.2697 14.5 19.4127 14.5 19.5619C14.5 19.7111 14.5593 19.8542 14.6648 19.9597C14.7702 20.0652 14.9133 20.1244 15.0625 20.1244H18.8125C18.9617 20.1244 19.1048 20.0652 19.2102 19.9597C19.3157 19.8542 19.375 19.7111 19.375 19.5619ZM19.5625 21.2494C19.7117 21.2494 19.8548 21.3087 19.9602 21.4142C20.0657 21.5197 20.125 21.6627 20.125 21.8119C20.125 21.9611 20.0657 22.1042 19.9602 22.2097C19.8548 22.3152 19.7117 22.3744 19.5625 22.3744H15.0625C14.9133 22.3744 14.7702 22.3152 14.6648 22.2097C14.5593 22.1042 14.5 21.9611 14.5 21.8119C14.5 21.6627 14.5593 21.5197 14.6648 21.4142C14.7702 21.3087 14.9133 21.2494 15.0625 21.2494H19.5625Z" fill="white"/>
</svg>
