<svg width="38" height="38" viewBox="0 0 38 38" fill="none" xmlns="http://www.w3.org/2000/svg">
<circle cx="19" cy="19" r="19" fill="#3762E9"/>
<path d="M23.5 12.25C24.2956 12.25 25.0587 12.5661 25.6213 13.1287C26.1839 13.6913 26.5 14.4544 26.5 15.25V21.25C26.5 22.0456 26.1839 22.8087 25.6213 23.3713C25.0587 23.9339 24.2956 24.25 23.5 24.25H19.957L16.3855 26.3927C16.2779 26.4573 16.1559 26.4938 16.0306 26.499C15.9052 26.5042 15.7806 26.4779 15.6681 26.4224C15.5556 26.367 15.4588 26.2842 15.3865 26.1817C15.3142 26.0791 15.2689 25.9601 15.2545 25.8355L15.25 25.75V24.25H14.5C13.7303 24.25 12.9901 23.9542 12.4324 23.4237C11.8747 22.8932 11.5422 22.1687 11.5038 21.4L11.5 21.25V15.25C11.5 14.4544 11.8161 13.6913 12.3787 13.1287C12.9413 12.5661 13.7044 12.25 14.5 12.25H23.5ZM20.5 19H16C15.8011 19 15.6103 19.079 15.4697 19.2197C15.329 19.3603 15.25 19.5511 15.25 19.75C15.25 19.9489 15.329 20.1397 15.4697 20.2803C15.6103 20.421 15.8011 20.5 16 20.5H20.5C20.6989 20.5 20.8897 20.421 21.0303 20.2803C21.171 20.1397 21.25 19.9489 21.25 19.75C21.25 19.5511 21.171 19.3603 21.0303 19.2197C20.8897 19.079 20.6989 19 20.5 19ZM22 16H16C15.8011 16 15.6103 16.079 15.4697 16.2197C15.329 16.3603 15.25 16.5511 15.25 16.75C15.25 16.9489 15.329 17.1397 15.4697 17.2803C15.6103 17.421 15.8011 17.5 16 17.5H22C22.1989 17.5 22.3897 17.421 22.5303 17.2803C22.671 17.1397 22.75 16.9489 22.75 16.75C22.75 16.5511 22.671 16.3603 22.5303 16.2197C22.3897 16.079 22.1989 16 22 16Z" fill="white"/>
</svg>
