<svg width="38" height="38" viewBox="0 0 38 38" fill="none" xmlns="http://www.w3.org/2000/svg">
<circle cx="19" cy="19" r="19" fill="#3762E9"/>
<path d="M15.9137 26.4994L14.6155 16.7494H23.3995L22.1012 26.4994H15.9137ZM18.9985 21.6244C19.5185 21.6244 19.9612 21.4419 20.3267 21.0769C20.6922 20.7129 20.875 20.2704 20.875 19.7494V18.6244H20.125V19.7494C20.125 20.0579 20.0147 20.3226 19.7942 20.5436C19.5732 20.7641 19.3085 20.8744 19 20.8744C18.6915 20.8744 18.4267 20.7641 18.2057 20.5436C17.9847 20.3231 17.8745 20.0584 17.875 19.7494V18.6244H17.125V19.7494C17.125 20.2704 17.3072 20.7129 17.6717 21.0769C18.0357 21.4419 18.478 21.6244 18.9985 21.6244ZM21.2515 15.2344C21.044 15.2344 20.8667 15.1619 20.7197 15.0169C20.5727 14.8719 20.4995 14.6951 20.5 14.4866C20.5005 14.2781 20.5732 14.1009 20.7182 13.9549C20.8632 13.8089 21.04 13.7356 21.2485 13.7351C21.457 13.7346 21.6342 13.8071 21.7802 13.9526C21.9262 14.0981 21.9995 14.2751 22 14.4836C22.0005 14.6921 21.9277 14.8694 21.7817 15.0154C21.6357 15.1614 21.459 15.2339 21.2515 15.2344ZM17.5 14.4844C17.09 14.4844 16.7375 14.3369 16.4425 14.0419C16.1475 13.7469 16 13.3919 16 12.9769C16 12.5619 16.1475 12.2094 16.4425 11.9194C16.7375 11.6294 17.0925 11.4844 17.5075 11.4844C17.9225 11.4844 18.275 11.6294 18.565 11.9194C18.855 12.2094 19 12.5644 19 12.9844C19 13.3939 18.855 13.7464 18.565 14.0419C18.275 14.3369 17.92 14.4844 17.5 14.4844Z" fill="white"/>
</svg>
