<svg width="16" height="16" viewBox="0 0 16 16" fill="none" xmlns="http://www.w3.org/2000/svg">
<path d="M4.66667 1.33398H5.33333C5.51014 1.33398 5.67971 1.40422 5.80474 1.52925C5.92976 1.65427 6 1.82384 6 2.00065V2.66732H9.33333V2.00065C9.33333 1.82384 9.40357 1.65427 9.52859 1.52925C9.65362 1.40422 9.82319 1.33398 10 1.33398H10.6667C10.8435 1.33398 11.013 1.40422 11.1381 1.52925C11.2631 1.65427 11.3333 1.82384 11.3333 2.00065V2.66732C11.8638 2.66732 12.3725 2.87803 12.7475 3.2531C13.1226 3.62818 13.3333 4.13688 13.3333 4.66732V12.0007C13.3333 12.5311 13.1226 13.0398 12.7475 13.4149C12.3725 13.7899 11.8638 14.0007 11.3333 14.0007H4C3.46957 14.0007 2.96086 13.7899 2.58579 13.4149C2.21071 13.0398 2 12.5311 2 12.0007V4.66732C2 4.13688 2.21071 3.62818 2.58579 3.2531C2.96086 2.87803 3.46957 2.66732 4 2.66732V2.00065C4 1.82384 4.07024 1.65427 4.19526 1.52925C4.32029 1.40422 4.48986 1.33398 4.66667 1.33398ZM10 2.66732H10.6667V2.00065H10V2.66732ZM5.33333 2.66732V2.00065H4.66667V2.66732H5.33333ZM4 3.33398C3.64638 3.33398 3.30724 3.47446 3.05719 3.72451C2.80714 3.97456 2.66667 4.3137 2.66667 4.66732V5.33398H12.6667V4.66732C12.6667 4.3137 12.5262 3.97456 12.2761 3.72451C12.0261 3.47446 11.687 3.33398 11.3333 3.33398H4ZM2.66667 12.0007C2.66667 12.3543 2.80714 12.6934 3.05719 12.9435C3.30724 13.1935 3.64638 13.334 4 13.334H11.3333C11.687 13.334 12.0261 13.1935 12.2761 12.9435C12.5262 12.6934 12.6667 12.3543 12.6667 12.0007V6.00065H2.66667V12.0007ZM8 8.66732H11.3333V12.0007H8V8.66732ZM8.66667 9.33398V11.334H10.6667V9.33398H8.66667Z" fill="#3762E9"/>
</svg>
