<svg width="16" height="16" viewBox="0 0 16 16" fill="none" xmlns="http://www.w3.org/2000/svg">
<path d="M14.354 1.64761C13.9284 1.2229 13.3518 0.984375 12.7505 0.984375C12.1493 0.984375 11.5726 1.2229 11.147 1.64761L6.89701 5.89761C6.8421 5.95235 6.80068 6.01911 6.77601 6.09261L5.52601 9.84261C5.49656 9.93069 5.49222 10.0252 5.51348 10.1156C5.53474 10.206 5.58076 10.2887 5.64637 10.3544C5.71199 10.4202 5.79461 10.4663 5.88498 10.4877C5.97535 10.5091 6.06989 10.5049 6.15801 10.4756L9.90801 9.22561C9.98187 9.20108 10.049 9.15965 10.104 9.10461L14.354 4.85461C14.7787 4.42904 15.0172 3.85235 15.0172 3.25111C15.0172 2.64987 14.7787 2.07319 14.354 1.64761ZM11.854 2.35461C12.093 2.123 12.4135 1.99466 12.7464 1.99728C13.0792 1.99991 13.3976 2.13329 13.633 2.36863C13.8683 2.60398 14.0017 2.92243 14.0043 3.25525C14.007 3.58807 13.8786 3.90858 13.647 4.14761L9.48001 8.31361L6.79001 9.21061L7.68701 6.52061L11.854 2.35461ZM8.00001 3.00061C8.12268 3.00061 8.24468 3.00495 8.36601 3.01361L9.24901 2.13061C7.98335 1.86151 6.6646 2.00878 5.48948 2.55046C4.31436 3.09213 3.34583 3.99919 2.72838 5.13632C2.11092 6.27345 1.87762 7.57973 2.06328 8.86029C2.24893 10.1409 2.84359 11.3271 3.75856 12.2421C4.67352 13.157 5.85976 13.7517 7.14033 13.9373C8.4209 14.123 9.72717 13.8897 10.8643 13.2722C12.0014 12.6548 12.9085 11.6863 13.4502 10.5111C13.9918 9.33602 14.1391 8.01728 13.87 6.75161L12.987 7.63561C12.9957 7.75561 13 7.87728 13 8.00061C13 8.98952 12.7068 9.95622 12.1574 10.7785C11.608 11.6007 10.8271 12.2416 9.91343 12.62C8.9998 12.9984 7.99446 13.0975 7.02456 12.9045C6.05465 12.7116 5.16374 12.2354 4.46448 11.5361C3.76521 10.8369 3.28901 9.94597 3.09608 8.97606C2.90316 8.00616 3.00217 7.00082 3.38061 6.08719C3.75905 5.17356 4.39991 4.39267 5.22216 3.84326C6.0444 3.29386 7.0111 3.00061 8.00001 3.00061Z" fill="#3762E9"/>
</svg>
