<svg width="16" height="16" viewBox="0 0 16 16" fill="none" xmlns="http://www.w3.org/2000/svg">
<g clip-path="url(#clip0_116_3734)">
<path d="M8.00001 7.55494C8.65596 7.55582 9.29742 7.36211 9.84325 6.99833C10.3891 6.63454 10.8147 6.11703 11.0664 5.51127C11.318 4.90551 11.3843 4.23873 11.2568 3.59528C11.1294 2.95183 10.814 2.36064 10.3505 1.89651C9.88697 1.43237 9.2962 1.11616 8.65293 0.987863C8.00965 0.859571 7.34278 0.92497 6.73668 1.17579C6.13058 1.4266 5.6125 1.85156 5.24799 2.3969C4.88347 2.94223 4.6889 3.58344 4.6889 4.23938C4.6889 5.11795 5.03761 5.9606 5.65844 6.58226C6.27926 7.20392 7.12145 7.55376 8.00001 7.55494ZM8.00001 1.80827C8.48034 1.80739 8.95012 1.94908 9.34987 2.21539C9.74961 2.48169 10.0613 2.86064 10.2456 3.30424C10.4298 3.74783 10.4782 4.23612 10.3847 4.70726C10.2912 5.1784 10.06 5.6112 9.72037 5.95085C9.38072 6.29049 8.94793 6.5217 8.47679 6.61519C8.00565 6.70868 7.51736 6.66025 7.07376 6.47603C6.63016 6.29181 6.25121 5.98009 5.98491 5.58035C5.7186 5.1806 5.57691 4.71082 5.57779 4.23049C5.57897 3.58844 5.83454 2.97302 6.28854 2.51902C6.74254 2.06502 7.35796 1.80945 8.00001 1.80827Z" fill="#3762E9"/>
<path d="M2.66666 14.1732V11.4532C3.35283 10.733 4.18136 10.1635 5.09954 9.78097C6.01773 9.39839 7.00549 9.21108 8 9.23095C9.3612 9.21238 10.701 9.57079 11.8711 10.2665L12.4711 9.59539C11.1332 8.75272 9.58106 8.31299 8 8.32872C6.8432 8.29925 5.69415 8.52535 4.63475 8.9909C3.57536 9.45645 2.63172 10.15 1.87111 11.0221C1.81182 11.0984 1.77905 11.192 1.77778 11.2887V14.1732C1.7718 14.4153 1.86197 14.6499 2.02857 14.8256C2.19516 15.0014 2.4246 15.104 2.66666 15.1109H8.17333L7.32889 14.2221L2.66666 14.1732Z" fill="#3762E9"/>
<path d="M13.3333 14.1734V14.2223H11.9333L11.1333 15.1112H13.3333C13.5723 15.1042 13.799 15.0041 13.9651 14.8322C14.1312 14.6603 14.2235 14.4302 14.2222 14.1912V11.6445L13.3333 12.6356V14.1734Z" fill="#3762E9"/>
<path d="M15.4489 8.27458C15.361 8.19635 15.2457 8.15616 15.1282 8.16282C15.0107 8.16949 14.9007 8.22246 14.8222 8.31014L9.65779 14.0879L7.34667 11.6035C7.30874 11.5591 7.26244 11.5227 7.21041 11.4962C7.15839 11.4697 7.10166 11.4538 7.04347 11.4492C6.98527 11.4447 6.92676 11.4517 6.87126 11.4697C6.81576 11.4878 6.76436 11.5166 6.72001 11.5546C6.67656 11.5941 6.64138 11.6419 6.61649 11.6951C6.59161 11.7483 6.57752 11.8059 6.57504 11.8646C6.57256 11.9233 6.58174 11.9819 6.60205 12.037C6.62235 12.0921 6.65338 12.1426 6.69334 12.1857L9.66667 15.3857L15.4845 8.88791C15.5586 8.80077 15.5963 8.68836 15.5897 8.57411C15.5831 8.45986 15.5326 8.35257 15.4489 8.27458Z" fill="#3762E9"/>
</g>
<defs>
<clipPath id="clip0_116_3734">
<rect width="16" height="16" fill="white"/>
</clipPath>
</defs>
</svg>
