<svg width="24" height="25" viewBox="0 0 24 25" fill="none" xmlns="http://www.w3.org/2000/svg">
<path d="M15.2477 16.7478L16.9277 15.0678C17.154 14.8444 17.4403 14.6914 17.7518 14.6275C18.0634 14.5636 18.3867 14.5915 18.6827 14.7078L20.7302 15.5253C21.0293 15.6468 21.2858 15.854 21.4673 16.1209C21.6488 16.3879 21.7473 16.7026 21.7502 17.0253V20.7753C21.7485 20.9949 21.7023 21.2119 21.6145 21.4132C21.5267 21.6144 21.3991 21.7959 21.2393 21.9465C21.0796 22.0972 20.891 22.2139 20.6849 22.2898C20.4788 22.3656 20.2595 22.399 20.0402 22.3878C5.69272 21.4953 2.79772 9.34535 2.25022 4.69535C2.22481 4.467 2.24803 4.23586 2.31836 4.01713C2.38869 3.7984 2.50453 3.59704 2.65827 3.4263C2.81201 3.25556 3.00016 3.1193 3.21034 3.0265C3.42052 2.93369 3.64797 2.88644 3.87772 2.88785H7.50022C7.82348 2.8888 8.13906 2.98645 8.40637 3.16822C8.67368 3.34999 8.8805 3.60758 9.00022 3.90785L9.81772 5.95535C9.93791 6.25015 9.96858 6.57383 9.90588 6.88596C9.84319 7.19808 9.68992 7.48482 9.46522 7.71035L7.78522 9.39035C7.78522 9.39035 8.75272 15.9378 15.2477 16.7478Z" fill="#3762E9"/>
</svg>
