<svg width="24" height="25" viewBox="0 0 24 25" fill="none" xmlns="http://www.w3.org/2000/svg">
<path d="M19 4.63782H5C4.20435 4.63782 3.44129 4.95389 2.87868 5.5165C2.31607 6.07911 2 6.84217 2 7.63782V17.6378C2 18.4335 2.31607 19.1965 2.87868 19.7591C3.44129 20.3217 4.20435 20.6378 5 20.6378H19C19.7956 20.6378 20.5587 20.3217 21.1213 19.7591C21.6839 19.1965 22 18.4335 22 17.6378V7.63782C22 6.84217 21.6839 6.07911 21.1213 5.5165C20.5587 4.95389 19.7956 4.63782 19 4.63782ZM19 6.63782L12.5 11.1078C12.348 11.1956 12.1755 11.2418 12 11.2418C11.8245 11.2418 11.652 11.1956 11.5 11.1078L5 6.63782H19Z" fill="#3762E9"/>
</svg>
