<svg width="24" height="30" viewBox="0 0 24 30" fill="none" xmlns="http://www.w3.org/2000/svg">
<path d="M12.25 4.63782C10.0628 4.6404 7.96584 5.51042 6.41923 7.05704C4.87261 8.60365 4.00259 10.7006 4.00001 12.8878C3.99739 14.6752 4.58124 16.4142 5.66201 17.8378C5.66201 17.8378 5.88701 18.1341 5.92376 18.1768L12.25 25.6378L18.5793 18.1731C18.6123 18.1333 18.838 17.8378 18.838 17.8378L18.8388 17.8356C19.919 16.4125 20.5026 14.6744 20.5 12.8878C20.4974 10.7006 19.6274 8.60365 18.0808 7.05704C16.5342 5.51042 14.4373 4.6404 12.25 4.63782ZM12.25 15.8878C11.6567 15.8878 11.0766 15.7119 10.5833 15.3822C10.09 15.0526 9.70543 14.584 9.47837 14.0359C9.25131 13.4877 9.1919 12.8845 9.30765 12.3025C9.42341 11.7206 9.70913 11.1861 10.1287 10.7665C10.5482 10.3469 11.0828 10.0612 11.6647 9.94546C12.2467 9.82971 12.8499 9.88912 13.3981 10.1162C13.9462 10.3432 14.4148 10.7278 14.7444 11.2211C15.0741 11.7145 15.25 12.2945 15.25 12.8878C15.249 13.6832 14.9326 14.4456 14.3702 15.008C13.8078 15.5704 13.0454 15.8868 12.25 15.8878Z" fill="#3762E9"/>
</svg>
