<svg width="25" height="26" viewBox="0 0 25 26" fill="none" xmlns="http://www.w3.org/2000/svg">
<path d="M24.0585 10.6675L13.9106 10.667C13.4624 10.667 13.0992 11.0384 13.0992 11.4966V14.8118C13.0992 15.2699 13.4624 15.6414 13.9105 15.6414H19.6252C18.9995 17.3021 17.8315 18.6929 16.3414 19.5766L18.7781 23.8902C22.687 21.5784 24.9979 17.5222 24.9979 12.9816C24.9979 12.3351 24.9513 11.8729 24.8581 11.3525C24.7873 10.9571 24.4516 10.6675 24.0585 10.6675Z" fill="#167EE6"/>
<path d="M12.5586 20.6225C9.76196 20.6225 7.3205 19.0599 6.00924 16.7477L1.79116 19.2339C3.93771 23.0383 7.9589 25.6003 12.5586 25.6003C14.8151 25.6003 16.9443 24.979 18.7784 23.8963V23.8903L16.3417 19.5767C15.2271 20.2378 13.9372 20.6225 12.5586 20.6225Z" fill="#12B347"/>
<path d="M18.778 23.8962V23.8903L16.3413 19.5767C15.2267 20.2377 13.9369 20.6225 12.5582 20.6225V25.6002C14.8147 25.6002 16.944 24.9789 18.778 23.8962Z" fill="#0F993E"/>
<path d="M4.98778 12.8794C4.98778 11.4697 5.36398 10.1508 6.0103 9.01107L1.79222 6.52484C0.727615 8.39456 0.120117 10.5659 0.120117 12.8794C0.120117 15.1928 0.727615 17.3641 1.79222 19.2339L6.0103 16.7476C5.36398 15.6079 4.98778 14.289 4.98778 12.8794Z" fill="#FFD500"/>
<path d="M12.5586 5.13618C14.3823 5.13618 16.0575 5.79885 17.3659 6.90114C17.6887 7.17305 18.1579 7.15342 18.4536 6.85106L20.7505 4.50217C21.086 4.1591 21.0621 3.59755 20.7037 3.27963C18.5115 1.33478 15.6591 0.158447 12.5586 0.158447C7.9589 0.158447 3.93771 2.72036 1.79116 6.52479L6.00924 9.01102C7.3205 6.69875 9.76196 5.13618 12.5586 5.13618Z" fill="#FF4B26"/>
<path d="M17.3656 6.90114C17.6884 7.17305 18.1576 7.15342 18.4532 6.85105L20.7501 4.50217C21.0856 4.1591 21.0617 3.59755 20.7033 3.27963C18.5111 1.33473 15.6588 0.158447 12.5582 0.158447V5.13618C14.3819 5.13618 16.0571 5.79885 17.3656 6.90114Z" fill="#D93F21"/>
</svg>
