<svg width="683" height="815" viewBox="0 0 683 815" fill="none" xmlns="http://www.w3.org/2000/svg">
<path opacity="0.05" fill-rule="evenodd" clip-rule="evenodd" d="M-0.665039 -163C-0.665039 -163 120.206 -135.07 204.666 -10.0853C289.126 114.899 210.369 212.443 258.387 288.451C306.406 364.46 415.061 341.152 503.211 398.329C591.36 455.507 644.805 535.575 665.09 615.036C685.376 694.497 692.313 828.93 665.09 839.846C637.867 850.763 -0.665039 839.846 -0.665039 839.846V-163Z" fill="#6FB1FC"/>
<path opacity="0.05" fill-rule="evenodd" clip-rule="evenodd" d="M-0.853271 -77.0303C-0.853271 -77.0303 106.031 -52.3318 180.718 58.1903C255.405 168.712 185.761 254.969 228.224 322.183C270.686 389.396 366.768 368.785 444.718 419.346C522.667 469.907 569.927 540.711 587.866 610.977C605.804 681.244 611.939 800.121 587.866 809.774C563.793 819.427 -0.853271 809.774 -0.853271 809.774V-77.0303Z" fill="#6FB1FC"/>
<path opacity="0.078" fill-rule="evenodd" clip-rule="evenodd" d="M0.392761 7.24902C0.392761 7.24902 97.1745 29.6129 164.802 129.688C232.429 229.763 169.368 307.867 207.817 368.727C246.265 429.587 333.266 410.925 403.847 456.707C474.428 502.489 517.222 566.599 533.464 630.224C549.707 693.849 555.262 801.49 533.464 810.23C511.667 818.971 0.392761 810.23 0.392761 810.23V7.24902Z" fill="#6FB1FC"/>
</svg>
