<svg width="660" height="815" viewBox="0 0 660 815" fill="none" xmlns="http://www.w3.org/2000/svg">
<path opacity="0.05" fill-rule="evenodd" clip-rule="evenodd" d="M683.665 -163C683.665 -163 562.794 -135.07 478.334 -10.0853C393.874 114.899 472.631 212.443 424.613 288.451C376.594 364.46 267.939 341.152 179.789 398.329C91.64 455.507 38.1955 535.575 17.9097 615.036C-2.37602 694.497 -9.31319 828.93 17.9097 839.846C45.1326 850.763 683.665 839.846 683.665 839.846V-163Z" fill="#6FB1FC"/>
<path opacity="0.05" fill-rule="evenodd" clip-rule="evenodd" d="M683.853 -77.0303C683.853 -77.0303 576.969 -52.3318 502.282 58.1903C427.595 168.712 497.239 254.969 454.776 322.183C412.314 389.396 316.232 368.785 238.282 419.346C160.333 469.907 113.073 540.711 95.1342 610.977C77.1958 681.244 71.0613 800.121 95.1342 809.774C119.207 819.427 683.853 809.774 683.853 809.774V-77.0303Z" fill="#6FB1FC"/>
<path opacity="0.078" fill-rule="evenodd" clip-rule="evenodd" d="M702.607 7.24902C702.607 7.24902 605.826 29.6129 538.198 129.688C470.571 229.763 533.632 307.867 495.183 368.727C456.735 429.587 369.734 410.925 299.153 456.707C228.572 502.489 185.778 566.599 169.536 630.224C153.293 693.849 147.738 801.49 169.536 810.23C191.333 818.971 702.607 810.23 702.607 810.23V7.24902Z" fill="#6FB1FC"/>
</svg>
