<svg width="24" height="25" viewBox="0 0 24 25" fill="none" xmlns="http://www.w3.org/2000/svg">
<path fill-rule="evenodd" clip-rule="evenodd" d="M6 2.63281C5.20435 2.63281 4.44129 2.94888 3.87868 3.51149C3.31607 4.0741 3 4.83716 3 5.63281V19.6328C3 20.4285 3.31607 21.1915 3.87868 21.7541C4.44129 22.3167 5.20435 22.6328 6 22.6328H12C12.7956 22.6328 13.5587 22.3167 14.1213 21.7541C14.6839 21.1915 15 20.4285 15 19.6328V5.63281C15 4.83716 14.6839 4.0741 14.1213 3.51149C13.5587 2.94888 12.7956 2.63281 12 2.63281H6ZM16.293 7.92581C16.4805 7.73834 16.7348 7.63303 17 7.63303C17.2652 7.63303 17.5195 7.73834 17.707 7.92581L21.707 11.9258C21.8945 12.1133 21.9998 12.3676 21.9998 12.6328C21.9998 12.898 21.8945 13.1523 21.707 13.3398L17.707 17.3398C17.5184 17.522 17.2658 17.6228 17.0036 17.6205C16.7414 17.6182 16.4906 17.513 16.3052 17.3276C16.1198 17.1422 16.0146 16.8914 16.0123 16.6292C16.01 16.367 16.1108 16.1144 16.293 15.9258L18.586 13.6328H10C9.73478 13.6328 9.48043 13.5275 9.29289 13.3399C9.10536 13.1524 9 12.898 9 12.6328C9 12.3676 9.10536 12.1132 9.29289 11.9257C9.48043 11.7382 9.73478 11.6328 10 11.6328H18.586L16.293 9.33981C16.1055 9.15228 16.0002 8.89798 16.0002 8.63281C16.0002 8.36765 16.1055 8.11334 16.293 7.92581Z" fill="white"/>
</svg>
