<svg width="33" height="32" viewBox="0 0 33 32" fill="none" xmlns="http://www.w3.org/2000/svg">
<path d="M16.7961 12.6654C17.7127 12.6654 18.4627 11.9154 18.4627 10.9987C18.4627 10.082 17.7127 9.33203 16.7961 9.33203C15.8794 9.33203 15.1294 10.082 15.1294 10.9987C15.1294 11.9154 15.8794 12.6654 16.7961 12.6654ZM16.7961 14.332C15.8794 14.332 15.1294 15.082 15.1294 15.9987C15.1294 16.9154 15.8794 17.6654 16.7961 17.6654C17.7127 17.6654 18.4627 16.9154 18.4627 15.9987C18.4627 15.082 17.7127 14.332 16.7961 14.332ZM16.7961 19.332C15.8794 19.332 15.1294 20.082 15.1294 20.9987C15.1294 21.9154 15.8794 22.6654 16.7961 22.6654C17.7127 22.6654 18.4627 21.9154 18.4627 20.9987C18.4627 20.082 17.7127 19.332 16.7961 19.332Z" fill="#232323"/>
</svg>
