<svg width="60" height="61" viewBox="0 0 60 61" fill="none" xmlns="http://www.w3.org/2000/svg">
<circle cx="30" cy="30.8477" r="27.5" fill="#3762E9" stroke="white" stroke-width="5"/>
<path d="M39.9957 27.9764C39.9957 27.9742 39.9959 27.9721 39.9959 27.9699C39.9959 25.3405 37.8644 23.209 35.235 23.209C32.6056 23.209 30.4741 25.3405 30.4741 27.9699C30.4741 30.5994 32.6058 32.7308 35.235 32.7308C35.7754 32.7308 36.2927 32.6366 36.7767 32.4707C35.7056 38.6154 30.9138 42.5781 35.3557 39.3167C40.2812 35.7002 40.0012 28.1152 39.9957 27.9764Z" fill="white"/>
<path d="M24.7609 32.7308C25.3013 32.7308 25.8186 32.6366 26.3028 32.4706C25.2314 38.6154 20.4397 42.5781 24.8816 39.3167C29.8071 35.7002 29.5271 28.1152 29.5216 27.9764C29.5216 27.9742 29.5218 27.9721 29.5218 27.9699C29.5218 25.3405 27.3903 23.209 24.7609 23.209C22.1315 23.209 20 25.3405 20 27.9699C20 30.5994 22.1317 32.7308 24.7609 32.7308Z" fill="white"/>
</svg>
