<svg width="18" height="19" viewBox="0 0 18 19" fill="none" xmlns="http://www.w3.org/2000/svg">
<path d="M3 10.3828H7.5C7.9125 10.3828 8.25 10.0453 8.25 9.63281V3.63281C8.25 3.22031 7.9125 2.88281 7.5 2.88281H3C2.5875 2.88281 2.25 3.22031 2.25 3.63281V9.63281C2.25 10.0453 2.5875 10.3828 3 10.3828ZM3 16.3828H7.5C7.9125 16.3828 8.25 16.0453 8.25 15.6328V12.6328C8.25 12.2203 7.9125 11.8828 7.5 11.8828H3C2.5875 11.8828 2.25 12.2203 2.25 12.6328V15.6328C2.25 16.0453 2.5875 16.3828 3 16.3828ZM10.5 16.3828H15C15.4125 16.3828 15.75 16.0453 15.75 15.6328V9.63281C15.75 9.22031 15.4125 8.88281 15 8.88281H10.5C10.0875 8.88281 9.75 9.22031 9.75 9.63281V15.6328C9.75 16.0453 10.0875 16.3828 10.5 16.3828ZM9.75 3.63281V6.63281C9.75 7.04531 10.0875 7.38281 10.5 7.38281H15C15.4125 7.38281 15.75 7.04531 15.75 6.63281V3.63281C15.75 3.22031 15.4125 2.88281 15 2.88281H10.5C10.0875 2.88281 9.75 3.22031 9.75 3.63281Z" fill="#5F6B7A"/>
</svg>
