<svg width="18" height="19" viewBox="0 0 18 19" fill="none" xmlns="http://www.w3.org/2000/svg">
<path d="M5.91373 17.1322L4.61548 7.38219H13.3995L12.1012 17.1322H5.91373ZM8.99848 12.2572C9.51848 12.2572 9.96123 12.0747 10.3267 11.7097C10.6922 11.3457 10.875 10.9032 10.875 10.3822V9.25719H10.125V10.3822C10.125 10.6907 10.0147 10.9554 9.79423 11.1764C9.57323 11.3969 9.30848 11.5072 8.99998 11.5072C8.69148 11.5072 8.42673 11.3969 8.20573 11.1764C7.98473 10.9559 7.87448 10.6912 7.87498 10.3822V9.25719H7.12498V10.3822C7.12498 10.9032 7.30723 11.3457 7.67173 11.7097C8.03573 12.0747 8.47798 12.2572 8.99848 12.2572ZM11.2515 5.86719C11.044 5.86719 10.8667 5.79469 10.7197 5.64969C10.5727 5.50469 10.4995 5.32794 10.5 5.11944C10.5005 4.91094 10.5732 4.73369 10.7182 4.58769C10.8632 4.44169 11.04 4.36844 11.2485 4.36794C11.457 4.36744 11.6342 4.43994 11.7802 4.58544C11.9262 4.73094 11.9995 4.90794 12 5.11644C12.0005 5.32494 11.9277 5.50219 11.7817 5.64819C11.6357 5.79419 11.459 5.86669 11.2515 5.86719ZM7.49998 5.11719C7.08998 5.11719 6.73748 4.96969 6.44248 4.67469C6.14748 4.37969 5.99998 4.02469 5.99998 3.60969C5.99998 3.19469 6.14748 2.84219 6.44248 2.55219C6.73748 2.26219 7.09248 2.11719 7.50748 2.11719C7.92248 2.11719 8.27498 2.26219 8.56498 2.55219C8.85498 2.84219 8.99998 3.19719 8.99998 3.61719C8.99998 4.02669 8.85498 4.37919 8.56498 4.67469C8.27498 4.96969 7.91998 5.11719 7.49998 5.11719Z" fill="#5F6B7A"/>
</svg>
