<svg width="18" height="19" viewBox="0 0 18 19" fill="none" xmlns="http://www.w3.org/2000/svg">
<path fill-rule="evenodd" clip-rule="evenodd" d="M14.25 16.7572H4.5C3.80381 16.7572 3.13613 16.4807 2.64384 15.9884C2.15156 15.4961 1.875 14.8284 1.875 14.1322V4.33948C1.875 3.53923 2.667 3.03148 3.36375 3.27298C3.46375 3.30748 3.5605 3.35798 3.654 3.42448L3.78525 3.51823C4.10449 3.74475 4.48641 3.86612 4.87785 3.86545C5.26929 3.86478 5.65079 3.7421 5.96925 3.51448C6.41628 3.19634 6.95132 3.02539 7.5 3.02539C8.04868 3.02539 8.58372 3.19634 9.03075 3.51448C9.34921 3.7421 9.73071 3.86478 10.1222 3.86545C10.5136 3.86612 10.8955 3.74475 11.2148 3.51823L11.346 3.42448C12.0907 2.89198 13.125 3.42448 13.125 4.33948V10.0072H15.75C15.8992 10.0072 16.0423 10.0665 16.1477 10.172C16.2532 10.2775 16.3125 10.4205 16.3125 10.5697V14.6947C16.3125 15.2417 16.0952 15.7663 15.7084 16.1531C15.3216 16.5399 14.797 16.7572 14.25 16.7572ZM13.3125 11.1322V14.6947C13.3125 14.9434 13.4113 15.1818 13.5871 15.3576C13.7629 15.5335 14.0014 15.6322 14.25 15.6322C14.4986 15.6322 14.7371 15.5335 14.9129 15.3576C15.0887 15.1818 15.1875 14.9434 15.1875 14.6947V11.1322H13.3125ZM10.125 7.94473C10.125 7.79555 10.0657 7.65247 9.96025 7.54699C9.85476 7.4415 9.71168 7.38223 9.5625 7.38223H5.0625C4.91332 7.38223 4.77024 7.4415 4.66475 7.54699C4.55926 7.65247 4.5 7.79555 4.5 7.94473C4.5 8.09392 4.55926 8.23699 4.66475 8.34248C4.77024 8.44797 4.91332 8.50723 5.0625 8.50723H9.5625C9.71168 8.50723 9.85476 8.44797 9.96025 8.34248C10.0657 8.23699 10.125 8.09392 10.125 7.94473ZM9.375 10.1947C9.375 10.0455 9.31574 9.90247 9.21025 9.79699C9.10476 9.6915 8.96168 9.63223 8.8125 9.63223H5.0625C4.91332 9.63223 4.77024 9.6915 4.66475 9.79699C4.55926 9.90247 4.5 10.0455 4.5 10.1947C4.5 10.3439 4.55926 10.487 4.66475 10.5925C4.77024 10.698 4.91332 10.7572 5.0625 10.7572H8.8125C8.96168 10.7572 9.10476 10.698 9.21025 10.5925C9.31574 10.487 9.375 10.3439 9.375 10.1947ZM9.5625 11.8822C9.71168 11.8822 9.85476 11.9415 9.96025 12.047C10.0657 12.1525 10.125 12.2955 10.125 12.4447C10.125 12.5939 10.0657 12.737 9.96025 12.8425C9.85476 12.948 9.71168 13.0072 9.5625 13.0072H5.0625C4.91332 13.0072 4.77024 12.948 4.66475 12.8425C4.55926 12.737 4.5 12.5939 4.5 12.4447C4.5 12.2955 4.55926 12.1525 4.66475 12.047C4.77024 11.9415 4.91332 11.8822 5.0625 11.8822H9.5625Z" fill="#5F6B7A"/>
</svg>
