<svg width="18" height="19" viewBox="0 0 18 19" fill="none" xmlns="http://www.w3.org/2000/svg">
<path fill-rule="evenodd" clip-rule="evenodd" d="M2.90925 5.04206C2.25 5.70056 2.25 6.76181 2.25 8.88281V10.3828C2.25 12.5038 2.25 13.5651 2.90925 14.2236C3.56775 14.8828 4.629 14.8828 6.75 14.8828H11.25C13.371 14.8828 14.4323 14.8828 15.0907 14.2236C15.75 13.5651 15.75 12.5038 15.75 10.3828V8.88281C15.75 6.76181 15.75 5.70056 15.0907 5.04206C14.4323 4.38281 13.371 4.38281 11.25 4.38281H6.75C4.629 4.38281 3.56775 4.38281 2.90925 5.04206ZM4.91625 6.75881C4.75075 6.64842 4.54818 6.60828 4.3531 6.64724C4.15801 6.68621 3.9864 6.80107 3.876 6.96656C3.7656 7.13206 3.72547 7.33463 3.76443 7.52971C3.80339 7.7248 3.91826 7.89642 4.08375 8.00681L8.16825 10.7293C8.41459 10.8935 8.70399 10.981 9 10.981C9.29601 10.981 9.58541 10.8935 9.83175 10.7293L13.9163 8.00681C14.0817 7.89642 14.1966 7.7248 14.2356 7.52971C14.2745 7.33463 14.2344 7.13206 14.124 6.96656C14.0136 6.80107 13.842 6.68621 13.6469 6.64724C13.4518 6.60828 13.2492 6.64842 13.0837 6.75881L9 9.48131L4.91625 6.75881Z" fill="#5F6B7A"/>
</svg>
