<svg width="18" height="19" viewBox="0 0 18 19" fill="none" xmlns="http://www.w3.org/2000/svg">
<path fill-rule="evenodd" clip-rule="evenodd" d="M6 5.88281C6 5.08716 6.31607 4.3241 6.87868 3.76149C7.44129 3.19888 8.20435 2.88281 9 2.88281C9.79565 2.88281 10.5587 3.19888 11.1213 3.76149C11.6839 4.3241 12 5.08716 12 5.88281C12 6.67846 11.6839 7.44152 11.1213 8.00413C10.5587 8.56674 9.79565 8.88281 9 8.88281C8.20435 8.88281 7.44129 8.56674 6.87868 8.00413C6.31607 7.44152 6 6.67846 6 5.88281ZM6 10.3828C5.00544 10.3828 4.05161 10.7779 3.34835 11.4812C2.64509 12.1844 2.25 13.1383 2.25 14.1328C2.25 14.7295 2.48705 15.3018 2.90901 15.7238C3.33097 16.1458 3.90326 16.3828 4.5 16.3828H13.5C14.0967 16.3828 14.669 16.1458 15.091 15.7238C15.5129 15.3018 15.75 14.7295 15.75 14.1328C15.75 13.1383 15.3549 12.1844 14.6517 11.4812C13.9484 10.7779 12.9946 10.3828 12 10.3828H6Z" fill="#5F6B7A"/>
</svg>
