<svg width="64" height="64" viewBox="0 0 64 64" fill="none" xmlns="http://www.w3.org/2000/svg">
<rect width="64" height="64" rx="4" fill="#3762E9"/>
<path d="M42 36H36V34H42V36ZM46 44H40V42H46V44ZM44 40H38V38H44V40Z" fill="white"/>
<path d="M33.003 36C32.9955 35.1563 32.7702 34.3289 32.349 33.5978C31.9279 32.8667 31.3251 32.2567 30.599 31.827L38 19L36.27 18L28.693 31.126C27.7631 30.9184 26.796 30.9471 25.8801 31.2097C24.9641 31.4723 24.1287 31.9602 23.45 32.629C19.706 36.24 19.996 44.682 20.01 45.04C20.0203 45.2982 20.1302 45.5424 20.3167 45.7214C20.5031 45.9004 20.7516 46.0002 21.01 46H36.001C36.2109 46 36.4154 45.934 36.5857 45.8112C36.756 45.6885 36.8833 45.5153 36.9497 45.3162C37.0161 45.1171 37.0181 44.9022 36.9555 44.7018C36.8929 44.5015 36.7689 44.3259 36.601 44.2C33.061 41.544 33.003 36.054 33.003 36ZM27.93 32.997C28.7304 33.0058 29.4965 33.3228 30.0691 33.8822C30.6417 34.4415 30.9765 35.2001 31.004 36C31.004 36.038 31.006 36.208 31.021 36.469L25.121 33.845C25.5096 33.5245 25.9581 33.2845 26.4404 33.1389C26.9226 32.9934 27.429 32.9451 27.93 32.997ZM31.45 44C30.6507 43.1861 30.1412 42.132 30 41H28C28.0716 42.0643 28.4041 43.0946 28.968 44H26.745C26.3336 42.7023 26.0834 41.3588 26 40H24C24.0641 41.3548 24.2873 42.6973 24.665 44H22C22.031 42.164 22.29 38.108 23.803 35.447L31.336 38.797C31.6971 40.6766 32.4688 42.4532 33.596 44H31.45Z" fill="white"/>
</svg>
