<svg width="64" height="64" viewBox="0 0 64 64" fill="none" xmlns="http://www.w3.org/2000/svg">
<rect width="64" height="64" rx="4" fill="#3762E9"/>
<path d="M23.488 45.3333C22.8951 45.3333 22.388 45.1222 21.9667 44.7C21.5453 44.2777 21.3342 43.7715 21.3333 43.1813V37.5146C21.3333 35.8826 21.9084 34.4915 23.0587 33.3413C24.2089 32.1911 25.5996 31.6164 27.2307 31.6173H28.9493V20.8453C28.9493 20.2462 29.1547 19.7333 29.5653 19.3066C29.9769 18.88 30.4809 18.6666 31.0773 18.6666H32.9227C33.52 18.6666 34.024 18.88 34.4347 19.3066C34.8462 19.7333 35.052 20.2462 35.052 20.8453V31.616H36.744C38.3822 31.616 39.7791 32.1906 40.9347 33.34C42.0893 34.4911 42.6667 35.8822 42.6667 37.5133V43.18C42.6667 43.772 42.4556 44.2786 42.0333 44.7C41.6111 45.1213 41.1044 45.3324 40.5133 45.3333H23.488ZM23.488 44H26.3333V39.3066C26.3333 39.1182 26.3973 38.9604 26.5253 38.8333C26.6533 38.7062 26.812 38.6422 27.0013 38.6413C27.1907 38.6404 27.3489 38.704 27.476 38.832C27.6031 38.96 27.6667 39.1186 27.6667 39.308V44H31.3333V39.3066C31.3333 39.1182 31.3973 38.9604 31.5253 38.8333C31.6533 38.7062 31.812 38.6422 32.0013 38.6413C32.1907 38.6404 32.3489 38.704 32.476 38.832C32.6031 38.96 32.6667 39.1186 32.6667 39.308V44H36.3333V39.3066C36.3333 39.1182 36.3973 38.9604 36.5253 38.8333C36.6533 38.7062 36.812 38.6422 37.0013 38.6413C37.1907 38.6404 37.3489 38.704 37.476 38.832C37.6031 38.96 37.6667 39.1186 37.6667 39.308V44H40.5133C40.7524 44 40.9489 43.9231 41.1027 43.7693C41.2564 43.6155 41.3333 43.4191 41.3333 43.18V37.5133C41.3333 36.2306 40.8871 35.1493 39.9947 34.2693C39.1022 33.3893 38.0187 32.9493 36.744 32.9493H27.2307C25.9631 32.9493 24.8858 33.3928 23.9987 34.28C23.1107 35.1671 22.6667 36.2444 22.6667 37.512V43.1786C22.6667 43.4186 22.7436 43.6155 22.8973 43.7693C23.0511 43.9231 23.248 44 23.488 44ZM33.7187 31.6146V20.8466C33.7187 20.6066 33.6413 20.4057 33.4867 20.244C33.3329 20.0813 33.1449 20 32.9227 20H31.0773C30.8551 20 30.6667 20.0813 30.512 20.244C30.3582 20.4066 30.2813 20.6075 30.2813 20.8466V31.616L33.7187 31.6146Z" fill="white"/>
</svg>
