<svg width="56" height="56" viewBox="0 0 56 56" fill="none" xmlns="http://www.w3.org/2000/svg">
<path d="M47.25 8.75H8.75C7.82174 8.75 6.9315 9.11875 6.27513 9.77513C5.61875 10.4315 5.25 11.3217 5.25 12.25V43.75C5.25 44.6783 5.61875 45.5685 6.27513 46.2249C6.9315 46.8812 7.82174 47.25 8.75 47.25H47.25C48.1783 47.25 49.0685 46.8812 49.7249 46.2249C50.3812 45.5685 50.75 44.6783 50.75 43.75V12.25C50.75 11.3217 50.3812 10.4315 49.7249 9.77513C49.0685 9.11875 48.1783 8.75 47.25 8.75ZM47.25 43.75H8.75V12.25H47.25V43.75ZM38.5 19.25C38.5 22.0348 37.3938 24.7055 35.4246 26.6746C33.4555 28.6438 30.7848 29.75 28 29.75C25.2152 29.75 22.5445 28.6438 20.5754 26.6746C18.6062 24.7055 17.5 22.0348 17.5 19.25C17.5 18.7859 17.6844 18.3408 18.0126 18.0126C18.3408 17.6844 18.7859 17.5 19.25 17.5C19.7141 17.5 20.1592 17.6844 20.4874 18.0126C20.8156 18.3408 21 18.7859 21 19.25C21 21.1065 21.7375 22.887 23.0503 24.1997C24.363 25.5125 26.1435 26.25 28 26.25C29.8565 26.25 31.637 25.5125 32.9497 24.1997C34.2625 22.887 35 21.1065 35 19.25C35 18.7859 35.1844 18.3408 35.5126 18.0126C35.8407 17.6844 36.2859 17.5 36.75 17.5C37.2141 17.5 37.6592 17.6844 37.9874 18.0126C38.3156 18.3408 38.5 18.7859 38.5 19.25Z" fill="#3762E9"/>
</svg>
