<svg width="56" height="56" viewBox="0 0 56 56" fill="none" xmlns="http://www.w3.org/2000/svg">
<path d="M28.482 20.0273L6.79415 41.7617C6.30374 42.2526 5.92325 42.8197 5.65268 43.4629C5.38211 44.1061 5.24683 44.7832 5.24683 45.4941C5.24683 46.2051 5.38211 46.8822 5.65268 47.5254C5.92325 48.1686 6.30374 48.7272 6.79415 49.2012C7.28455 49.6751 7.8426 50.0475 8.46829 50.3184C9.09398 50.5892 9.77041 50.7331 10.4976 50.75C11.1909 50.75 11.8589 50.6146 12.5015 50.3438C13.1441 50.0729 13.719 49.6921 14.2263 49.2012L27.9746 35.4648V40.0605L16.5346 51.5117C15.7229 52.3242 14.8013 52.9421 13.7698 53.3652C12.7382 53.7884 11.6475 54 10.4976 54C9.33073 54 8.24 53.7799 7.22537 53.3398C6.21073 52.8997 5.30602 52.2819 4.51122 51.4863C3.71642 50.6908 3.10764 49.7936 2.68488 48.7949C2.26211 47.7962 2.03382 46.696 2 45.4941C2 44.3262 2.21138 43.2344 2.63415 42.2188C3.05691 41.2031 3.67415 40.2806 4.48585 39.4512L24.9307 18.9863C24.8631 18.597 24.8124 18.2077 24.7785 17.8184C24.7447 17.429 24.7278 17.0312 24.7278 16.625C24.7278 15.2878 24.8969 14.0013 25.2351 12.7656C25.5733 11.5299 26.0637 10.362 26.7063 9.26172C27.3489 8.16146 28.1184 7.17122 29.0146 6.29102C29.9109 5.41081 30.9002 4.64909 31.9824 4.00586C33.0647 3.36263 34.2231 2.87174 35.4576 2.5332C36.692 2.19466 37.9857 2.01693 39.3385 2C40.2517 2 41.0888 2.06771 41.8498 2.20312C42.6107 2.33854 43.3548 2.54167 44.082 2.8125C44.8091 3.08333 45.5109 3.40495 46.1873 3.77734C46.8637 4.14974 47.5909 4.55599 48.3688 4.99609L38.3746 15L40.962 17.5898L50.9561 7.58594C51.3619 8.29688 51.7424 9.00781 52.0976 9.71875C52.4527 10.4297 52.774 11.166 53.0615 11.9277C53.3489 12.6895 53.5772 13.4512 53.7463 14.2129C53.9154 14.9746 54 15.7871 54 16.6504C54 17.7676 53.8647 18.8763 53.5941 19.9766C53.3236 21.0768 52.9262 22.1263 52.402 23.125C51.8777 24.1237 51.2689 25.0632 50.5756 25.9434C49.8823 26.8236 49.079 27.6022 48.1659 28.2793C47.388 27.9746 46.5932 27.7376 45.7815 27.5684C44.9698 27.3991 44.1411 27.2975 43.2956 27.2637C44.3948 26.8574 45.401 26.2988 46.3141 25.5879C47.2273 24.877 48.0052 24.0645 48.6478 23.1504C49.2904 22.2363 49.7977 21.2292 50.1698 20.1289C50.5418 19.0286 50.7193 17.8861 50.7024 16.7012C50.7024 15.4316 50.4995 14.2129 50.0937 13.0449L40.962 22.1602L33.8088 15L42.9151 5.85938C41.7652 5.45312 40.573 5.25 39.3385 5.25C37.7659 5.25 36.2946 5.54622 34.9249 6.13867C33.5551 6.73112 32.3545 7.54362 31.3229 8.57617C30.2914 9.60872 29.4797 10.8105 28.8878 12.1816C28.2959 13.5527 27.9915 15.0339 27.9746 16.625C27.9746 17.2005 28.0254 17.7676 28.1268 18.3262C28.2283 18.8848 28.3467 19.4518 28.482 20.0273ZM42.5854 31.25C44.1581 31.25 45.6293 31.5462 46.999 32.1387C48.3688 32.7311 49.5779 33.5436 50.6263 34.5762C51.6748 35.6087 52.4865 36.8105 53.0615 38.1816C53.6364 39.5527 53.9324 41.0339 53.9493 42.625C53.9493 44.1992 53.6533 45.6719 53.0615 47.043C52.4696 48.4141 51.6579 49.6243 50.6263 50.6738C49.5948 51.7233 48.3941 52.5358 47.0244 53.1113C45.6546 53.6868 44.175 53.9831 42.5854 54C41.0127 54 39.5415 53.7038 38.1717 53.1113C36.802 52.5189 35.5928 51.7064 34.5444 50.6738C33.4959 49.6413 32.6842 48.4395 32.1093 47.0684C31.5343 45.6973 31.2384 44.2161 31.2215 42.625C31.2215 41.0508 31.5174 39.5781 32.1093 38.207C32.7011 36.8359 33.5128 35.6257 34.5444 34.5762C35.5759 33.5267 36.7766 32.7142 38.1463 32.1387C39.5161 31.5632 40.9958 31.2669 42.5854 31.25ZM34.4683 42.625C34.4683 43.7422 34.6797 44.7917 35.1024 45.7734C35.5252 46.7552 36.1002 47.6185 36.8273 48.3633C37.5545 49.1081 38.4169 49.6921 39.4146 50.1152C40.4124 50.5384 41.4693 50.75 42.5854 50.75C43.3802 50.75 44.1581 50.64 44.919 50.4199C45.68 50.1999 46.3902 49.8613 47.0498 49.4043L35.8127 38.1562C35.373 38.8164 35.0433 39.5273 34.8234 40.2891C34.6036 41.0508 34.4852 41.8294 34.4683 42.625ZM49.358 47.0938C49.7977 46.4336 50.1275 45.7227 50.3473 44.9609C50.5672 44.1992 50.6855 43.4206 50.7024 42.625C50.7024 41.5078 50.4911 40.4583 50.0683 39.4766C49.6455 38.4948 49.0621 37.64 48.3181 36.9121C47.574 36.1842 46.7115 35.6003 45.7307 35.1602C44.7499 34.7201 43.7015 34.5 42.5854 34.5C41.7906 34.5 41.0127 34.61 40.2517 34.8301C39.4907 35.0501 38.7805 35.3887 38.121 35.8457L49.358 47.0938Z" fill="#3762E9"/>
</svg>
