<svg width="56" height="56" viewBox="0 0 56 56" fill="none" xmlns="http://www.w3.org/2000/svg">
<g clip-path="url(#clip0_7_2)">
<path d="M7 1.16675H49M7 54.8334H49M12.8333 54.8334V40.8334L19.4973 36.8341C21.0229 35.9189 22.2855 34.6242 23.1621 33.076C24.0388 31.5279 24.4995 29.7792 24.4995 28.0001C24.4995 26.221 24.0388 24.4722 23.1621 22.9241C22.2855 21.376 21.0229 20.0813 19.4973 19.1661L12.8333 15.1667V1.16675M43.1667 1.16675V15.1667L36.5027 19.1661C34.9776 20.0817 33.7156 21.3766 32.8394 22.9247C31.9632 24.4727 31.5027 26.2213 31.5027 28.0001C31.5027 29.7789 31.9632 31.5274 32.8394 33.0755C33.7156 34.6236 34.9776 35.9184 36.5027 36.8341L43.1667 40.8334V54.8334" stroke="#3762E9" stroke-width="2.5"/>
</g>
<defs>
<clipPath id="clip0_7_2">
<rect width="56" height="56" fill="white"/>
</clipPath>
</defs>
</svg>
