<svg width="56" height="56" viewBox="0 0 56 56" fill="none" xmlns="http://www.w3.org/2000/svg">
<path d="M28 8.4001C26.8861 8.4001 25.8178 8.8426 25.0301 9.63025C24.2425 10.4179 23.8 11.4862 23.8 12.6001C23.8 13.714 24.2425 14.7823 25.0301 15.5699C25.8178 16.3576 26.8861 16.8001 28 16.8001C29.1139 16.8001 30.1822 16.3576 30.9698 15.5699C31.7575 14.7823 32.2 13.714 32.2 12.6001C32.2 11.4862 31.7575 10.4179 30.9698 9.63025C30.1822 8.8426 29.1139 8.4001 28 8.4001ZM21 12.6001C21 10.7436 21.7375 8.9631 23.0502 7.65035C24.363 6.3376 26.1435 5.6001 28 5.6001C29.8565 5.6001 31.637 6.3376 32.9497 7.65035C34.2625 8.9631 35 10.7436 35 12.6001C35 14.4566 34.2625 16.2371 32.9497 17.5498C31.637 18.8626 29.8565 19.6001 28 19.6001C26.1435 19.6001 24.363 18.8626 23.0502 17.5498C21.7375 16.2371 21 14.4566 21 12.6001ZM43.4 11.2001C42.6574 11.2001 41.9452 11.4951 41.4201 12.0202C40.895 12.5453 40.6 13.2575 40.6 14.0001C40.6 14.7427 40.895 15.4549 41.4201 15.98C41.9452 16.5051 42.6574 16.8001 43.4 16.8001C44.1426 16.8001 44.8548 16.5051 45.3799 15.98C45.905 15.4549 46.2 14.7427 46.2 14.0001C46.2 13.2575 45.905 12.5453 45.3799 12.0202C44.8548 11.4951 44.1426 11.2001 43.4 11.2001ZM37.8 14.0001C37.8 12.5149 38.39 11.0905 39.4402 10.0403C40.4904 8.9901 41.9148 8.4001 43.4 8.4001C44.8852 8.4001 46.3096 8.9901 47.3598 10.0403C48.41 11.0905 49 12.5149 49 14.0001C49 15.4853 48.41 16.9097 47.3598 17.9599C46.3096 19.0101 44.8852 19.6001 43.4 19.6001C41.9148 19.6001 40.4904 19.0101 39.4402 17.9599C38.39 16.9097 37.8 15.4853 37.8 14.0001ZM9.79998 14.0001C9.79998 13.2575 10.095 12.5453 10.6201 12.0202C11.1452 11.4951 11.8574 11.2001 12.6 11.2001C13.3426 11.2001 14.0548 11.4951 14.5799 12.0202C15.105 12.5453 15.4 13.2575 15.4 14.0001C15.4 14.7427 15.105 15.4549 14.5799 15.98C14.0548 16.5051 13.3426 16.8001 12.6 16.8001C11.8574 16.8001 11.1452 16.5051 10.6201 15.98C10.095 15.4549 9.79998 14.7427 9.79998 14.0001ZM12.6 8.4001C11.1148 8.4001 9.69038 8.9901 8.64018 10.0403C7.58997 11.0905 6.99998 12.5149 6.99998 14.0001C6.99998 15.4853 7.58997 16.9097 8.64018 17.9599C9.69038 19.0101 11.1148 19.6001 12.6 19.6001C14.0852 19.6001 15.5096 19.0101 16.5598 17.9599C17.61 16.9097 18.2 15.4853 18.2 14.0001C18.2 12.5149 17.61 11.0905 16.5598 10.0403C15.5096 8.9901 14.0852 8.4001 12.6 8.4001ZM14.28 41.9945L14 42.0001C12.5148 42.0001 11.0904 41.4101 10.0402 40.3599C8.98997 39.3097 8.39998 37.8853 8.39998 36.4001V25.9001C8.39998 25.7144 8.47373 25.5364 8.605 25.4051C8.73628 25.2738 8.91432 25.2001 9.09998 25.2001H14.0392C14.1512 24.1725 14.5152 23.2177 15.0612 22.4001H9.09998C7.16798 22.4001 5.59998 23.9681 5.59998 25.9001V36.4001C5.59984 37.5988 5.85628 38.7837 6.35206 39.8751C6.84784 40.9665 7.57147 41.9392 8.47433 42.7277C9.37719 43.5163 10.4384 44.1024 11.5866 44.4468C12.7348 44.7913 13.9434 44.8859 15.1312 44.7245C14.755 43.8459 14.4698 42.9312 14.28 41.9945ZM40.8688 44.7245C41.2384 44.7749 41.6154 44.8001 42 44.8001C44.2278 44.8001 46.3644 43.9151 47.9397 42.3398C49.515 40.7645 50.4 38.6279 50.4 36.4001V25.9001C50.4 23.9681 48.832 22.4001 46.9 22.4001H40.9388C41.4876 23.2177 41.8488 24.1725 41.9608 25.2001H46.9C47.0856 25.2001 47.2637 25.2738 47.395 25.4051C47.5262 25.5364 47.6 25.7144 47.6 25.9001V36.4001C47.6002 37.1592 47.446 37.9104 47.1469 38.6081C46.8478 39.3058 46.41 39.9354 45.86 40.4586C45.3101 40.9818 44.6595 41.3878 43.9478 41.6518C43.2361 41.9159 42.4781 42.0325 41.72 41.9945C41.5302 42.9312 41.2449 43.8459 40.8688 44.7245ZM20.3 22.4001C18.368 22.4001 16.8 23.9681 16.8 25.9001V39.2001C16.8 42.1705 17.98 45.0193 20.0804 47.1197C22.1808 49.2201 25.0296 50.4001 28 50.4001C30.9704 50.4001 33.8192 49.2201 35.9196 47.1197C38.02 45.0193 39.2 42.1705 39.2 39.2001V25.9001C39.2 23.9681 37.632 22.4001 35.7 22.4001H20.3ZM19.6 25.9001C19.6 25.7144 19.6737 25.5364 19.805 25.4051C19.9363 25.2738 20.1143 25.2001 20.3 25.2001H35.7C35.8856 25.2001 36.0637 25.2738 36.195 25.4051C36.3262 25.5364 36.4 25.7144 36.4 25.9001V39.2001C36.4 41.4279 35.515 43.5645 33.9397 45.1398C32.3644 46.7151 30.2278 47.6001 28 47.6001C25.7722 47.6001 23.6356 46.7151 22.0603 45.1398C20.485 43.5645 19.6 41.4279 19.6 39.2001V25.9001Z" fill="#3762E9"/>
</svg>
