<svg width="56" height="56" viewBox="0 0 56 56" fill="none" xmlns="http://www.w3.org/2000/svg">
<g clip-path="url(#clip0_116_2235)">
<path d="M50.1663 9.33398H45.1108V12.4451H49.7774V46.6673H6.22186V12.4451H10.8885V9.33398H5.83297C5.46934 9.34006 5.11047 9.41771 4.77685 9.56251C4.44324 9.7073 4.14142 9.9164 3.88862 10.1779C3.63583 10.4393 3.43703 10.748 3.30356 11.0863C3.17009 11.4246 3.10457 11.7859 3.11075 12.1495V46.9629C3.10457 47.3265 3.17009 47.6878 3.30356 48.0261C3.43703 48.3644 3.63583 48.6731 3.88862 48.9346C4.14142 49.196 4.44324 49.4051 4.77685 49.5499C5.11047 49.6947 5.46934 49.7724 5.83297 49.7784H50.1663C50.5299 49.7724 50.8888 49.6947 51.2224 49.5499C51.556 49.4051 51.8579 49.196 52.1107 48.9346C52.3634 48.6731 52.5623 48.3644 52.6957 48.0261C52.8292 47.6878 52.8947 47.3265 52.8885 46.9629V12.1495C52.8947 11.7859 52.8292 11.4246 52.6957 11.0863C52.5623 10.748 52.3634 10.4393 52.1107 10.1779C51.8579 9.9164 51.556 9.7073 51.2224 9.56251C50.8888 9.41771 50.5299 9.34006 50.1663 9.33398Z" fill="#3762E9"/>
<path d="M12.4443 21.7773H15.5554V24.8885H12.4443V21.7773Z" fill="#3762E9"/>
<path d="M21.7778 21.7773H24.8889V24.8885H21.7778V21.7773Z" fill="#3762E9"/>
<path d="M31.1113 21.7773H34.2224V24.8885H31.1113V21.7773Z" fill="#3762E9"/>
<path d="M40.4443 21.7773H43.5554V24.8885H40.4443V21.7773Z" fill="#3762E9"/>
<path d="M12.4443 29.5547H15.5554V32.6658H12.4443V29.5547Z" fill="#3762E9"/>
<path d="M21.7778 29.5547H24.8889V32.6658H21.7778V29.5547Z" fill="#3762E9"/>
<path d="M31.1113 29.5547H34.2224V32.6658H31.1113V29.5547Z" fill="#3762E9"/>
<path d="M40.4443 29.5547H43.5554V32.6658H40.4443V29.5547Z" fill="#3762E9"/>
<path d="M12.4443 37.334H15.5554V40.4451H12.4443V37.334Z" fill="#3762E9"/>
<path d="M21.7778 37.334H24.8889V40.4451H21.7778V37.334Z" fill="#3762E9"/>
<path d="M31.1113 37.334H34.2224V40.4451H31.1113V37.334Z" fill="#3762E9"/>
<path d="M40.4443 37.334H43.5554V40.4451H40.4443V37.334Z" fill="#3762E9"/>
<path d="M15.5556 15.5558C15.9681 15.5558 16.3638 15.3919 16.6555 15.1002C16.9472 14.8084 17.1111 14.4128 17.1111 14.0002V4.66688C17.1111 4.25432 16.9472 3.85866 16.6555 3.56694C16.3638 3.27522 15.9681 3.11133 15.5556 3.11133C15.143 3.11133 14.7473 3.27522 14.4556 3.56694C14.1639 3.85866 14 4.25432 14 4.66688V14.0002C14 14.4128 14.1639 14.8084 14.4556 15.1002C14.7473 15.3919 15.143 15.5558 15.5556 15.5558Z" fill="#3762E9"/>
<path d="M40.4442 15.5558C40.8568 15.5558 41.2524 15.3919 41.5442 15.1002C41.8359 14.8084 41.9998 14.4128 41.9998 14.0002V4.66688C41.9998 4.25432 41.8359 3.85866 41.5442 3.56694C41.2524 3.27522 40.8568 3.11133 40.4442 3.11133C40.0317 3.11133 39.636 3.27522 39.3443 3.56694C39.0526 3.85866 38.8887 4.25432 38.8887 4.66688V14.0002C38.8887 14.4128 39.0526 14.8084 39.3443 15.1002C39.636 15.3919 40.0317 15.5558 40.4442 15.5558Z" fill="#3762E9"/>
<path d="M20.2222 9.33398H35.7777V12.4451H20.2222V9.33398Z" fill="#3762E9"/>
</g>
<defs>
<clipPath id="clip0_116_2235">
<rect width="56" height="56" fill="white"/>
</clipPath>
</defs>
</svg>
