<svg width="56" height="56" viewBox="0 0 56 56" fill="none" xmlns="http://www.w3.org/2000/svg">
<path d="M28.429 50C27.9902 50 27.5523 49.9125 27.1154 49.7376C26.6784 49.5645 26.3052 49.3039 25.9957 48.9558L10.3469 33.2277H14.1785L27.921 47.0069C28.0157 47.098 28.0976 47.1554 28.1668 47.1791C28.236 47.2028 28.3179 47.2137 28.4126 47.2119C28.5036 47.2119 28.5837 47.201 28.6529 47.1791C28.7239 47.1554 28.8059 47.098 28.8987 47.0069L46.0769 29.7972C47.4387 28.4342 48.4893 26.9034 49.2285 25.2051C49.9676 23.5067 50.32 21.7837 50.2854 20.0362C50.2289 16.8927 49.2339 14.2285 47.3004 12.0436C45.3686 9.85687 43.0054 8.7635 40.2106 8.7635C38.7304 8.7635 37.2902 9.06417 35.8901 9.66553C34.4919 10.2669 33.2766 11.1425 32.2442 12.2924L29.7699 14.9574C29.5788 15.1943 29.3712 15.3583 29.1472 15.4495C28.9233 15.5406 28.6839 15.5852 28.429 15.5834C28.1741 15.5816 27.921 15.5251 27.6698 15.4139C27.4185 15.3028 27.1964 15.1506 27.0034 14.9574L24.5291 12.2924C23.504 11.1388 22.2933 10.2578 20.8968 9.64913C19.4985 9.03866 18.0538 8.73343 16.5627 8.73343C14.174 8.73343 12.0893 9.56257 10.3087 11.2208C8.52985 12.881 7.37372 14.9611 6.84026 17.4613H4.0792C4.64361 14.183 6.07649 11.4532 8.37783 9.27191C10.6792 7.09064 13.4075 6 16.5627 6C18.4325 6 20.2296 6.38086 21.9537 7.14257C23.6779 7.90247 25.2209 9.00404 26.5828 10.4473L28.4208 12.3935L30.155 10.5539C31.5405 9.0742 33.1045 7.94529 34.8469 7.16717C36.5893 6.38906 38.3772 6 40.2106 6C43.7828 6 46.8079 7.37036 49.2858 10.1111C51.7637 12.8518 53.0018 16.1592 53 20.0334C53 22.1619 52.5785 24.2247 51.7355 26.2219C50.8907 28.2191 49.6772 30.015 48.0951 31.6095L30.7804 48.9586C30.4326 49.3048 30.0631 49.5645 29.6716 49.7376C29.2802 49.9107 28.866 49.9973 28.429 49.9973M28.1313 26.7112H4V23.9778H39.0035C40.1269 23.9778 41.0909 23.5759 41.8957 22.7723C42.6986 21.9669 43.1 21.002 43.1 19.8776C43.1 18.7533 42.6986 17.7884 41.8957 16.9829C41.0909 16.1793 40.1269 15.7775 39.0035 15.7775C38.3299 15.7775 37.6999 15.9305 37.1136 16.2367C36.5256 16.5447 36.0403 16.982 35.658 17.5487L32.9215 16.797C33.5278 15.6508 34.3662 14.7388 35.4368 14.0609C36.5074 13.383 37.6963 13.044 39.0035 13.044C40.9007 13.044 42.512 13.7083 43.8374 15.0367C45.1665 16.3633 45.8311 17.9751 45.8311 19.8721C45.8311 21.7691 45.1665 23.3828 43.8374 24.7131C42.5083 26.0433 40.897 26.7094 39.0035 26.7112H33.3776C33.8655 27.2725 34.2424 27.892 34.5082 28.5699C34.7741 29.2478 34.907 29.9949 34.907 30.8113C34.907 32.7102 34.2424 34.3229 32.9133 35.6495C31.5879 36.9798 29.9766 37.6449 28.0794 37.6449C26.774 37.6449 25.5851 37.306 24.5127 36.6281C23.4421 35.9502 22.6037 35.0381 21.9974 33.8919L24.7339 33.1402C25.1163 33.7088 25.6015 34.1461 26.1896 34.4523C26.7776 34.7584 27.4076 34.9115 28.0794 34.9115C29.2028 34.9115 30.1668 34.5097 30.9716 33.706C31.7745 32.9006 32.176 31.9357 32.176 30.8113C32.176 29.687 31.7827 28.7221 30.9962 27.9166C30.2096 27.1112 29.2547 26.7094 28.1313 26.7112Z" fill="#3762E9"/>
</svg>
