<svg width="38" height="38" viewBox="0 0 38 38" fill="none" xmlns="http://www.w3.org/2000/svg">
<circle cx="18.6589" cy="19.1386" r="18.4977" fill="#3762E9"/>
<g clip-path="url(#clip0_28_4020)">
<path d="M27.6332 13.6949C26.9896 13.98 26.2983 14.1727 25.5715 14.2598C26.3214 13.8111 26.8825 13.1048 27.15 12.2729C26.4454 12.6914 25.6743 12.9859 24.8701 13.1438C24.3294 12.5664 23.6131 12.1837 22.8325 12.0551C22.052 11.9265 21.2508 12.0592 20.5534 12.4326C19.856 12.806 19.3014 13.3992 18.9756 14.1201C18.6499 14.841 18.5713 15.6493 18.752 16.4194C17.3243 16.3478 15.9277 15.9767 14.6528 15.3303C13.3778 14.6839 12.253 13.7767 11.3514 12.6675C11.0431 13.1993 10.8658 13.8159 10.8658 14.4725C10.8654 15.0637 11.011 15.6458 11.2896 16.1672C11.5682 16.6886 11.9711 17.1332 12.4628 17.4615C11.8926 17.4433 11.3351 17.2893 10.8365 17.0121V17.0584C10.8364 17.8875 11.1232 18.6911 11.6482 19.3328C12.1732 19.9746 12.9041 20.4149 13.7167 20.5791C13.1879 20.7223 12.6334 20.7433 12.0951 20.6408C12.3244 21.3542 12.771 21.978 13.3725 22.425C13.974 22.8719 14.7001 23.1196 15.4494 23.1333C14.1775 24.1318 12.6068 24.6733 10.9899 24.671C10.7035 24.671 10.4173 24.6543 10.1328 24.6209C11.7741 25.6761 13.6846 26.2362 15.6359 26.234C22.2411 26.234 25.852 20.7633 25.852 16.0187C25.852 15.8645 25.8482 15.7088 25.8412 15.5547C26.5436 15.0467 27.1499 14.4177 27.6317 13.6972L27.6332 13.6949Z" fill="white"/>
</g>
<defs>
<clipPath id="clip0_28_4020">
<rect width="18.4977" height="18.4977" fill="white" transform="translate(9.41016 9.88977)"/>
</clipPath>
</defs>
</svg>
