<svg width="38" height="38" viewBox="0 0 38 38" fill="none" xmlns="http://www.w3.org/2000/svg">
<circle cx="18.821" cy="19.137" r="18.4977" fill="#3762E9"/>
<path d="M25.7166 16.2892C25.7088 15.7055 25.5996 15.1275 25.3937 14.5812C25.2151 14.1205 24.9424 13.702 24.593 13.3526C24.2436 13.0031 23.8251 12.7304 23.3643 12.5519C22.8251 12.3495 22.2554 12.24 21.6795 12.2282C20.938 12.195 20.7029 12.1858 18.8208 12.1858C16.9387 12.1858 16.6974 12.1858 15.9614 12.2282C15.3857 12.2401 14.8163 12.3495 14.2773 12.5519C13.8164 12.7303 13.3979 13.003 13.0485 13.3524C12.699 13.7019 12.4264 14.1204 12.2479 14.5812C12.0451 15.1201 11.9359 15.6897 11.925 16.2653C11.8919 17.0075 11.8818 17.2426 11.8818 19.1248C11.8818 21.0069 11.8818 21.2474 11.925 21.9842C11.9366 22.5607 12.0452 23.1295 12.2479 23.6698C12.4267 24.1305 12.6995 24.5489 13.0491 24.8982C13.3986 25.2475 13.8172 25.52 14.2781 25.6984C14.8156 25.909 15.3851 26.0262 15.9621 26.0452C16.7044 26.0784 16.9394 26.0884 18.8216 26.0884C20.7037 26.0884 20.945 26.0884 21.681 26.0452C22.2569 26.0339 22.8266 25.9247 23.3659 25.7223C23.8265 25.5435 24.2449 25.2708 24.5943 24.9214C24.9437 24.572 25.2165 24.1536 25.3952 23.6929C25.5979 23.1534 25.7066 22.5846 25.7181 22.0073C25.7513 21.2659 25.7613 21.0308 25.7613 19.1479C25.7598 17.2657 25.7598 17.0268 25.7166 16.2892ZM18.8162 22.684C16.8477 22.684 15.253 21.0894 15.253 19.1209C15.253 17.1524 16.8477 15.5578 18.8162 15.5578C19.7612 15.5578 20.6675 15.9332 21.3357 16.6014C22.0039 17.2696 22.3793 18.1759 22.3793 19.1209C22.3793 20.0659 22.0039 20.9722 21.3357 21.6404C20.6675 22.3086 19.7612 22.684 18.8162 22.684ZM22.5211 16.2568C22.412 16.2569 22.3039 16.2355 22.203 16.1938C22.1022 16.1521 22.0106 16.0909 21.9334 16.0137C21.8562 15.9365 21.795 15.8449 21.7533 15.7441C21.7116 15.6432 21.6902 15.5351 21.6903 15.426C21.6903 15.3169 21.7117 15.2089 21.7535 15.1082C21.7952 15.0074 21.8564 14.9159 21.9335 14.8387C22.0106 14.7616 22.1022 14.7005 22.2029 14.6587C22.3037 14.617 22.4117 14.5955 22.5207 14.5955C22.6298 14.5955 22.7378 14.617 22.8385 14.6587C22.9393 14.7005 23.0309 14.7616 23.108 14.8387C23.1851 14.9159 23.2463 15.0074 23.288 15.1082C23.3297 15.2089 23.3512 15.3169 23.3512 15.426C23.3512 15.8853 22.9797 16.2568 22.5211 16.2568Z" fill="white"/>
<path d="M18.8165 21.4355C20.0948 21.4355 21.131 20.3992 21.131 19.1209C21.131 17.8426 20.0948 16.8064 18.8165 16.8064C17.5382 16.8064 16.502 17.8426 16.502 19.1209C16.502 20.3992 17.5382 21.4355 18.8165 21.4355Z" fill="white"/>
</svg>
