<svg width="38" height="38" viewBox="0 0 38 38" fill="none" xmlns="http://www.w3.org/2000/svg">
<circle cx="18.9821" cy="19.1356" r="18.4977" fill="#3762E9"/>
<g clip-path="url(#clip0_28_4025)">
<path d="M27.8462 14.9019C27.7415 14.5283 27.5375 14.19 27.2559 13.923C26.9663 13.6479 26.6114 13.4511 26.2246 13.3512C24.7772 12.9696 18.9781 12.9696 18.9781 12.9696C16.5606 12.9421 14.1436 13.0631 11.7409 13.3319C11.3541 13.4392 10.9999 13.6404 10.7096 13.9177C10.4245 14.192 10.2179 14.5304 10.11 14.9011C9.85079 16.2975 9.72485 17.7153 9.73387 19.1356C9.72463 20.5545 9.85026 21.9719 10.11 23.37C10.2156 23.7392 10.4214 24.076 10.7073 24.3481C10.9933 24.6201 11.3493 24.8167 11.7409 24.9207C13.2076 25.3015 18.9781 25.3015 18.9781 25.3015C21.3988 25.329 23.8188 25.208 26.2246 24.9392C26.6114 24.8393 26.9663 24.6425 27.2559 24.3673C27.541 24.0953 27.7437 23.7569 27.8455 23.3885C28.1115 21.9927 28.2408 20.5742 28.2316 19.1533C28.2516 17.7263 28.1225 16.3012 27.8462 14.9011V14.9019ZM17.1345 21.7746V16.4973L21.9593 19.1363L17.1345 21.7746Z" fill="white"/>
</g>
<defs>
<clipPath id="clip0_28_4025">
<rect width="18.4977" height="18.4977" fill="white" transform="translate(9.7334 9.88672)"/>
</clipPath>
</defs>
</svg>
