<svg width="39" height="39" viewBox="0 0 39 39" fill="none" xmlns="http://www.w3.org/2000/svg">
<rect x="0.823457" y="0.483247" width="37.6933" height="37.6933" rx="18.8467" fill="#F7FCFF"/>
<rect x="0.823457" y="0.483247" width="37.6933" height="37.6933" rx="18.8467" stroke="#EBEBEB" stroke-width="0.966495"/>
<path d="M19.6699 11.7188C18.1646 11.7188 16.693 12.1651 15.4414 13.0015C14.1898 13.8378 13.2142 15.0265 12.6381 16.4172C12.0621 17.808 11.9113 19.3383 12.205 20.8148C12.4987 22.2912 13.2236 23.6474 14.288 24.7118C15.3525 25.7762 16.7086 26.5011 18.1851 26.7948C19.6615 27.0885 21.1918 26.9377 22.5826 26.3617C23.9733 25.7856 25.162 24.8101 25.9984 23.5584C26.8347 22.3068 27.2811 20.8352 27.2811 19.3299C27.2811 17.3113 26.4792 15.3754 25.0518 13.948C23.6245 12.5206 21.6885 11.7188 19.6699 11.7188ZM19.6699 25.8537C18.3796 25.8537 17.1183 25.4711 16.0455 24.7543C14.9726 24.0374 14.1365 23.0185 13.6427 21.8265C13.1489 20.6344 13.0197 19.3227 13.2714 18.0572C13.5232 16.7917 14.1445 15.6292 15.0569 14.7168C15.9693 13.8045 17.1317 13.1831 18.3972 12.9314C19.6627 12.6797 20.9744 12.8089 22.1665 13.3027C23.3586 13.7964 24.3775 14.6326 25.0943 15.7054C25.8112 16.7783 26.1938 18.0396 26.1938 19.3299C26.1938 21.0601 25.5064 22.7195 24.283 23.9429C23.0595 25.1664 21.4002 25.8537 19.6699 25.8537Z" fill="#232323"/>
<path d="M19.67 24.2228C20.1204 24.2228 20.4855 23.8577 20.4855 23.4073C20.4855 22.9569 20.1204 22.5918 19.67 22.5918C19.2197 22.5918 18.8546 22.9569 18.8546 23.4073C18.8546 23.8577 19.2197 24.2228 19.67 24.2228Z" fill="#232323"/>
<path d="M20.2138 14.9805H19.3983C19.0768 14.9798 18.7584 15.0425 18.4612 15.1652C18.1641 15.2879 17.8941 15.4681 17.6668 15.6954C17.4395 15.9227 17.2593 16.1927 17.1366 16.4899C17.0139 16.787 16.9511 17.1054 16.9518 17.4269V17.6987H18.0392V17.4269C18.0392 17.0665 18.1824 16.7207 18.4372 16.4659C18.6921 16.211 19.0378 16.0678 19.3983 16.0678H20.2138C20.5742 16.0678 20.9199 16.211 21.1748 16.4659C21.4297 16.7207 21.5729 17.0665 21.5729 17.4269C21.5729 17.7874 21.4297 18.1331 21.1748 18.388C20.9199 18.6429 20.5742 18.786 20.2138 18.786H19.1265V21.2325H20.2138V19.8734C20.8626 19.8734 21.4849 19.6156 21.9437 19.1568C22.4025 18.698 22.6602 18.0758 22.6602 17.4269C22.6602 16.7781 22.4025 16.1558 21.9437 15.697C21.4849 15.2382 20.8626 14.9805 20.2138 14.9805Z" fill="#232323"/>
</svg>
